/* XPM */
static char * bloff_xpm[] = {
"60 48 256 2",
"  	c None",
". 	c #0A0404",
"+ 	c #222216",
"@ 	c #3E3626",
"# 	c #52462D",
"$ 	c #5D5636",
"% 	c #6A6649",
"& 	c #666248",
"* 	c #1A160C",
"= 	c #432E1F",
"- 	c #564E31",
"; 	c #685636",
"> 	c #3E3222",
", 	c #49422F",
"' 	c #665E36",
") 	c #2B1A11",
"! 	c #3C261B",
"~ 	c #523628",
"{ 	c #665234",
"] 	c #1E1E16",
"^ 	c #625E41",
"/ 	c #624E2F",
"( 	c #322E1A",
"_ 	c #423A27",
": 	c #1A0E02",
"< 	c #5A4630",
"[ 	c #322A1D",
"} 	c #615648",
"| 	c #221609",
"1 	c #725E42",
"2 	c #6E5E3A",
"3 	c #75725E",
"4 	c #564F43",
"5 	c #2E2212",
"6 	c #5E5A3A",
"7 	c #665A39",
"8 	c #5A522E",
"9 	c #4A3A22",
"0 	c #7B6D57",
"a 	c #665E46",
"b 	c #4E473E",
"c 	c #120E0A",
"d 	c #726245",
"e 	c #6E5A36",
"f 	c #625632",
"g 	c #766A4A",
"h 	c #453621",
"i 	c #5E4E2E",
"j 	c #3C2A16",
"k 	c #665A46",
"l 	c #221A0D",
"m 	c #4E422C",
"n 	c #52463A",
"o 	c #6A6253",
"p 	c #706957",
"q 	c #6A5A3A",
"r 	c #302612",
"s 	c #564A2E",
"t 	c #4E3225",
"u 	c #23120D",
"v 	c #564E37",
"w 	c #625236",
"x 	c #6E623E",
"y 	c #2A1A17",
"z 	c #4A3E26",
"A 	c #726642",
"B 	c #5A4A3C",
"C 	c #62563E",
"D 	c #4A3624",
"E 	c #665643",
"F 	c #6A5E3A",
"G 	c #1A1208",
"H 	c #523A1E",
"I 	c #3A2E1A",
"J 	c #5A523E",
"K 	c #221A16",
"L 	c #141205",
"M 	c #56462D",
"N 	c #1A1613",
"O 	c #524229",
"P 	c #423221",
"Q 	c #625243",
"R 	c #5C4A2A",
"S 	c #5E5642",
"T 	c #6A5E46",
"U 	c #322215",
"V 	c #6E5E4B",
"W 	c #443A30",
"X 	c #665A3E",
"Y 	c #6A624E",
"Z 	c #5E5A3E",
"` 	c #322622",
" .	c #221E1A",
"..	c #4C3E36",
"+.	c #5E5232",
"@.	c #362618",
"#.	c #5E4E3B",
"$.	c #1A120F",
"%.	c #221611",
"&.	c #44362C",
"*.	c #5A4A2E",
"=.	c #726A4F",
"-.	c #2F1E17",
";.	c #6A6651",
">.	c #3A2E2A",
",.	c #321E0F",
"'.	c #5E5A47",
").	c #5A4A32",
"!.	c #4D3E2E",
"~.	c #110A06",
"{.	c #1E1211",
"].	c #52422F",
"^.	c #564633",
"/.	c #564E3E",
"(.	c #3D322E",
"_.	c #6E624B",
":.	c #261A0A",
"<.	c #523E27",
"[.	c #5E4A33",
"}.	c #2E261A",
"|.	c #4A3222",
"1.	c #1D1A0C",
"2.	c #665A42",
"3.	c #66563A",
"4.	c #6A5E54",
"5.	c #221616",
"6.	c #3E2E1D",
"7.	c #362A1C",
"8.	c #4A2E22",
"9.	c #6A5A3E",
"0.	c #423228",
"a.	c #1E1A14",
"b.	c #514636",
"c.	c #5A563B",
"d.	c #221E11",
"e.	c #62523E",
"f.	c #2A1E10",
"g.	c #262217",
"h.	c #625A3E",
"i.	c #15120A",
"j.	c #6E5E42",
"k.	c #7E725D",
"l.	c #4E4234",
"m.	c #3A2A24",
"n.	c #665E3A",
"o.	c #1E160D",
"p.	c #31261E",
"q.	c #160E02",
"r.	c #2E2217",
"s.	c #6A5E3E",
"t.	c #5B4E43",
"u.	c #766E56",
"v.	c #4E3A27",
"w.	c #32221B",
"x.	c #463E32",
"y.	c #5E5236",
"z.	c #2A221F",
"A.	c #2A1E18",
"B.	c #5E563A",
"C.	c #362A23",
"D.	c #5A5235",
"E.	c #6E6A50",
"F.	c #665E4B",
"G.	c #726649",
"H.	c #6A5A47",
"I.	c #6A5A42",
"J.	c #261A17",
"K.	c #564A33",
"L.	c #6A6242",
"M.	c #57422A",
"N.	c #261E0E",
"O.	c #66563E",
"P.	c #553E2E",
"Q.	c #625A42",
"R.	c #4A3E2A",
"S.	c #1E1613",
"T.	c #554A3A",
"U.	c #726E5C",
"V.	c #1B0E09",
"W.	c #62563A",
"X.	c #6A6246",
"Y.	c #261611",
"Z.	c #665E3E",
"`.	c #5E523A",
" +	c #5A4E31",
".+	c #463E2A",
"++	c #261A11",
"@+	c #5A4E36",
"#+	c #46321F",
"$+	c #6E5E46",
"%+	c #5E4E32",
"&+	c #52463E",
"*+	c #72664F",
"=+	c #625642",
"-+	c #514632",
";+	c #72624C",
">+	c #3E2E24",
",+	c #6E6649",
"'+	c #1E120A",
")+	c #3A2A1C",
"!+	c #6A5E42",
"~+	c #2E221E",
"{+	c #463626",
"]+	c #2A1E1E",
"^+	c #4A3A26",
"/+	c #5C5242",
"(+	c #2E1E1E",
"_+	c #625A4E",
":+	c #4A4238",
"<+	c #5E4E36",
"[+	c #261E14",
"}+	c #463A27",
"|+	c #5E523E",
"1+	c #625A47",
"2+	c #665242",
"3+	c #1A0E0E",
"4+	c #6E5A3D",
"5+	c #2E1E12",
"6+	c #221A12",
"7+	c #766654",
"8+	c #533A29",
"9+	c #261616",
"0+	c #160E09",
"a+	c #160A05",
"b+	c #665E42",
"c+	c #625E47",
"d+	c #625A39",
"e+	c #322618",
"f+	c #3E322A",
"g+	c #6E664F",
"h+	c #362E26",
"i+	c #5A523A",
"j+	c #362214",
"k+	c #3A2E20",
"l+	c #3E2A1C",
"m+	c #62523A",
"n+	c #5E563E",
"o+	c #554A3E",
"p+	c #766A53",
"q+	c #5A4E3A",
"r+	c #5A4A36",
"s+	c #6A5E4A",
"t+	c #6A624A",
"u+	c #5E4633",
"v+	c #4E3623",
"w+	c #16120F",
"x+	c #3E362E",
"y+	c #4E3E25",
"z+	c #625232",
"A+	c #6E6245",
"B+	c #261E1B",
"C+	c #56422E",
"D+	c #5A4E3E",
"E+	c #2A2216",
"F+	c #4A3A2A",
"G+	c #4E3E2A",
"!+X !+!+d+B.X Z.d+b+@+k p+0 ,+h.h.b+a n+c+=.p F._+;.*+A+G.=.G.G.,+^ 6 ^ X.E.% & ^ b+_.X m+m+O.I.!+A+C 2.b+X X T ,+*+i+S ",
"b+h.y.h.C d+& X W.W.T g k.0 _.C h.X.b+^ F.g+g+'.'.k *+T T A+X.E.=.A+X D.D.B.L.% X.X.g d X !+!+X 2.2.!+A+T Q.i+$ C L.i+i+",
"2.n+y.X 9.s.,+L.s.!+*+b+$ h.A+t+b+h.a t+g+o F._+& & s+C O.O.C 9.T 2.d+c.8 c.f h.d+h.2.O.W.X I.X C X T A+Z.W.- - D.h.1+Q.",
"Z.d+X X.L.!+A+A+A+g !+y.@+W.X.!+Z c.Q.% ;.1+S F.o 4.s+I.V A+2.2.!+W.2.s.% A+d+8 8 f !+7 m+3.7 O.s.X.Z.h.h.6 `.y.C 2.& a ",
"2.W.!+,+d 2 j.9.9.G._.% =.u.E.L.X.=.k a a 1+'.1+F.F.s+T _.;+H.k s+I.$+j.A+A+' d+f 7 G.A+X I.s.X s.A+7 f W.Z.L.Z.d+7 Q.a ",
"h.n+Z.7+g G.G.s.3.9.,+s.& E.=.t+% =.E.a 1+F.s+1+1+k E Q E E `.e.V V T `.s 8 7 F ' d+7 3.3.X 9.X W.X W.y.$ Z.L.d+y.K.B.n+",
"h.h.B.2.X D.).w X 3.2.B.!+,+& ,+E.Q.S 1+1+'.J v D+t.q+Q o+t.K.#.D+V I.@+).f s.,+x z+*.7 s.9.9.W.$ 2.2.X X Z.X.Z.^ ^ a Z ",
"& a W.^ b+X h.b+I.b+6 $ & X.a _.=.F.} J T., W @ > > }+}+6...^.} D+Q q+#.I.!+f z+q 7 7 $+I.C O.3.m+X X W.d+2.b+Z.X !+Z n+",
"X.c+X 2.2.T a X C C a Q.& ;.t+g+_.c+v , > [ e+5 N.| f.5 :.k+x.B b.B |+=+;+T +.- ; F 3.X W.f 2.X W.d+C C h.!+2.b+2.!+y.h.",
"a h.=+C T ,+_.Z =+a E.% E.=.g+4.S &+&.h+5 f.E+5 ) | : N.f.7.@.>.0.&+o+D+} X %+i d+W.`.O.e.E ;+$+C C 2.h.2.2.a W.h.b+c.Z ",
"a h.S Z & g+_.c+F.=.g+;.& & & J x.> E+A.5+-.r.}.U 5 '+E+N.E+l 6+E+&.&.{+l.q+`.W.!+!+O.$+T H._.I.e.C H.b+b+b+k C =+h.h.h.",
"b+Q.a s+o & c+} F.o c+1+/+J o+W }.E+o.E+@.h+@.w.U r [ ( d.[+'+l '+z.>.x+&+J q+e.!+!+e.I.I.O.E =+Q._.s+2.} k k =+|+e.,+^ ",
"^ h.& & & 1+'.'.'.c.c.'.o+, @ }.[+C.w.x+..&+..W {+_ , .+[ }. .[+{.[+` >...T.v D+h.n+B Q #.#.e.2+=+_.k E |+Q.F.T 1+=+,+h.",
"^ 1+& F.1+'.F.E.o '.'.& /.@ [ o.J.(.:+t.4.o H.Q /+} J J .+@ ~+E+%.~+%.o.}.W l.D+|+K.m+E 2.E H.k k s+E i+#.=+$+s+T b+2.D.",
"& 1+i+S Y ;.S c.} a s+F.l.p.E+[+}.x.b o k.3 U.U.7+4./+} } D+W @.J.%.V.y C.x+W :+o+t.C O.m+#.e.E V H.7+s+#.|+X I.I.9.!+3.",
"1+F.'.Z s+s+} S b+} _.H.l.e+A.A.h+:+4 & 3 3 p o './.Q #.Q B C+0.w.y 9+~+[ h+W b 4 /.m+m+e.`.#.2+2+E ;+E m+O.4+!+9.X j.7 ",
"Q.t+g+& X.,+T s+A+1+Q < >.) J.]+(.b '.o p p ;.F./+n !.v.v.&.&.>+(+V.9+9+J.B+p.(.x.:+|+3.E ; =+=+2+2+E e.e.2.$+$+s.3.$+9.",
"Z Q.s+C =+h.C B.|+).-+&.5+V.{.z.x+b _+c+& g+p+p+V /+v.F+&.&.= m.-.%.J.B+]+J.z.h+x.&+r+n+$+s+E e.} 1+e.|+m+C !+!+9.X I.O.",
"C D.T X T !+3.$ y.# K.> f.'+u B+(.x.b o+S *+k.k.7+4.&+^.P.&.>.C.-.Y.Y.K ]+5.5.]+x+b m v 2.T 2.C e.1+2.C W.`.W.X !+!+I.m+",
"b+O.X.$+d G.X m+m+#.^.)+Y.u {.]+h+(.>.W B ;+0 7+E #.#.#.b.0.U f.++{.3+u 5.S.0+$.` W , s |+k Q.|+} H.a a Q.W.B.b+X.,+C <+",
"!+$+7 m+w W. +*. +# l.r.o.%.9+(+C.C.p.k+l.E 2+[.8+D o+B ].> w.-.++{.S.K B+J.$.$.z.(.x.# v =+Q.h.Q.F.Q.Q.^ Z 6 b+X.A+O.<+",
"m+j.I.f w / R  +z+<+^.@.Y.y 5.]+w.(+)+( P !.!.= l+= |.D > e+f.++Y.V.{.{.5.S.$.0+a.}._ .+b i+n+i+c.h.D.h.Q.h.n+b+L.X.;+O.",
"9.s.$+s.X 9.q 9.; O.B >+'+y (+9+]+p.,.e+)+h D |.l+,.@.7.@.U 5 ++o.0+0+3+S.a.S.$.a.z._ .+- B.v |+a i+D.,+D.D.6 i+h.h.e.O.",
"X I.q j.d 9./ < M *.].7.a+V.5.{.(+w.E+5 e+l+0.0.! U e+@.@.r.y f.5.{.3+$.S.5.$.$.N + > _ s T.T.c.Z c.^ U.h.h.X.^ & T !+I.",
"3.I.O.9.A+2 3.+.M M ^+)+| y ]+S.B+]+A.) N.U ! l+! j+r.r.r.[+Y.Y.5.{.$.{.N S.0+w+$.6+[ @ , # @+`.`.W.T ,+B.X A+X a !+A+j.",
"y.f 7 W.m+X A+4+z+s # &.r.p.w.J.]+J.l l Y.:.f.r.w.-.U r.-.++%.%.{.$.{.3+$.$.i.c * d.[ }+}+, q+D. +C d+$  +B.O.B.W.2.$+9.",
"q+q+C y.%+<+W.W.*.O <+!.5 %.V.a+K A.l l d.N.5+-.(+y -.A.) 6+{.{.{.3+{.3+0+0+c c o.g.7.}+h z r+K.s y.%+s <+B.<+@+#.H.I.3.",
"W.y.y.y.y.+. +s K.).-+G+U Y.V.~.o.1.d.d.d.f.g.E+[+y %.) ++u %.5.5.S.$.3+0+0+0+L ] }.> {+^+m r+ +).m+<+).2.O.#.e.H.A+A+F ",
"Q.`.y.W.C m+<+ +W.9.<.].h h+-.{.5.G l l ] N. .[+ .B+u 5.9+u S.5.5.S.S.w+0+0+i.* + [ > 6.#+].^. +m+W.3.%+;+2 m+T H.1 d 2 ",
"C i+2.2.X h.h.2.C W.r+@+F+>+-.o.d.o.* * * * o.5.5.9+5.J.K S.S.S.S.$.S.$.i.q.G o.g.[ @.,.6.v.G+^.W.m+2.y.d 2.`.1 V 2.q 3.",
"j. +9.I.I.2+C `.K.m <.<.G+h e+l 1.1.L L L * [+%.$.$.{.S.S.$.$.w+w+c S.0+c 0+* l E+[ I 6.{+v.^+].m+X 2.Q.O.2.b+X h.C f O.",
"I.4+$+I.e.m+|+=+t.n <.P.P.F+I r 1.1.d.d.* G a.S.3+%.S.$.i.w+w+w+$.a.N L c * l E+[ > k+>+R.].m # T.K.K.@+B.W.2.b+Z.b+4+$+",
"C 2.j.9.`.<+|+2.|+B < < ].m &.> r g.g.d.* G {.V.0+{.J.{.N a.N c w+ .w+c q.o.N.}.7.k+> 6.F+!.R.].K.m @+i+C d+d+h.Z.b+2.O.",
"O.f X W.<+@+q+|+|+K.q+^.O 9 }+> > > :.| V.V.o.$.a+$.a.S.S.] N c ~.c ~.~.0+l E+U [ I 6.l+> D {+, -+# B.W.B.`.D.y.d+!+9.3.",
"$+E m+3.O.w <+q+q+q+).^.v.D D P 6.6.) ++'+G o.$.0+{.0+w+0+c w+w+c . $.G o.A.[ ! )+6.>+l+> h h G+K.# m s K.@+- D.h.!+T I.",
"O.W./ 2.I.O.#.`.`.#.@+^.^.M ].v.= ! ! ,.u a+'+G 0+o.c w+~.. ~.] a.i.o.S.J.U )+I 6.= > > ^+m G+O K.# m m - y.d+W.d+W.w W.",
"<+<+m+X b+7 w y.f `. + +r+).M.P.v+= 8.! ) u u : ~.i.$.$.0+c w+ .B+K K 1.++r.@.l+6.= P P v.<.R.G+).^.s  +y.W.h.h.h.W.%+m+",
"I.X m+W.3.`.`.m+e.y.s K.K.C+C+8+~ ~ t 8.! ,.5+o.q.G $.3+3+$.{.$.$.S.6+Y.J.w.l+j = #+D h ^+z h y+@+m+ +K.- - y.C h.2.h.L.",
"C C E I.O.{ 3. +< m+#  +@+C+<.P.8+~ t t = j+) :.o.G S.N 5.K S.3+$.++[ p.U @.P D D h v.9 v.O @+#.+.).#  +`.- s - f !+!+W.",
"i+- A+!+O.O.X w i 3. +r+*.M P.8+~ ~ t 8.= l+j+f.:.l %.9+J.J.9+6+[+z.@.)+)+> #+h D v+v.y+O M < *.O m *.#.f y.s s B.2.f f ",
"E O.T j.O.; d d q j.!+W.y.3.<+< M.u+8+t #+P 6.U 5 r ) 5+r.f.y -.w.[ ` k+#+{+|.#+D D 9 y+C+# O y+y+y+i ).y.W.W. +y.Q.h.!+",
"X.t+m+C m+O.2 4+; 2 q W.m+<+).O <.^.].R.F+G+#+7.@.6.U j+U 5+5+r.7.@.7.> {+}+h #+#+9 <.<.y+v.9 z y+O s # M W.B.@+D.7  +$ ",
"2.B.@+h.3.{ 3.{ R i 3.9.9.w  +@+ +K.O v.9 G+D j j = ! ! j j+U U @.@.>+> #+h }+9 9 v.M O y+y+<.M *.*.O y+O <+y.*.).y.s  +",
"C |+`.I.I.7 ; z+/ / ; $+$+X C Z.2.c.s # m M O v.D v.D |.l+= 6.j j )+k+6.> h v.y+O m M M M < *.*.*.M O O M %+%+*.K.y.f 6 ",
"2.T B.!+I.3.e 4+e 4+{ 3.3.3.d+B.B.c.D.c.c.`.<+).u+u+M.H v+H y+#+h y+h h }+z ].O O O < R R *.*.M M *.M *. + +@+%+`.C 7 f ",
"k Q.2.I.w  +{ e e 4+z+%+f s.T 6 Z ^ ^ ^ a Q.|+/ R u+R <.<.R [.O <.^.-+K.r+#.@+).M O M *.M # y+y+M *.M  +m+`.%+m+X !+X ^ ",
"V $+2.I.4+1 4+4+; { ; 9.X B.W.Z ^ Z ^ n+h.!+n+*.M { +.# m M ).@+).M r+).O <.M ).[.M [.i < < M.<.O *.<.).).#.K.M `.y. +$ ",
" +].9.9.j.9.4+; 4+1 I.!+$+L.T L.c+Z Q.^ L.E.;+X 9.L.c.c.@+c.=+`.).^.M.M.< < ).%+[.< *.M < [.).M ].O ^.<+^.@+<+r+E O.+.+."};
