/* XPM */
static char * blon_xpm[] = {
"60 48 256 2",
"  	c None",
". 	c #190202",
"+ 	c #E2CE82",
"@ 	c #FB9A38",
"# 	c #D04D1A",
"$ 	c #23261F",
"% 	c #423A26",
"& 	c #B83D12",
"* 	c #4E4A2E",
"= 	c #9A2A16",
"- 	c #750F09",
"; 	c #83290A",
"> 	c #6D6247",
", 	c #591008",
"' 	c #A83E17",
") 	c #615638",
"! 	c #71290F",
"~ 	c #D96A2D",
"{ 	c #FCAC4D",
"] 	c #420202",
"^ 	c #8B4223",
"/ 	c #E5DDAF",
"( 	c #59281C",
"_ 	c #19200B",
": 	c #7A4B31",
"< 	c #7A3A22",
"[ 	c #795A3F",
"} 	c #CC844E",
"| 	c #ECBE57",
"1 	c #BA7646",
"2 	c #3A0605",
"3 	c #412919",
"4 	c #704A30",
"5 	c #725831",
"6 	c #E5E4B1",
"7 	c #E6CA8A",
"8 	c #695E3A",
"9 	c #190E03",
"0 	c #5F3D28",
"a 	c #5D4E31",
"b 	c #51432D",
"c 	c #C35D39",
"d 	c #6C5734",
"e 	c #AE664A",
"f 	c #ECC87C",
"g 	c #4F2920",
"h 	c #DC8244",
"i 	c #961F0F",
"j 	c #E6DECE",
"k 	c #685031",
"l 	c #252019",
"m 	c #45140F",
"n 	c #201009",
"o 	c #F8E3AD",
"p 	c #F9A17B",
"q 	c #FB714D",
"r 	c #E8BE66",
"s 	c #ECE19C",
"t 	c #FB903D",
"u 	c #582016",
"v 	c #AE562A",
"w 	c #CC5A27",
"x 	c #BF542C",
"y 	c #251807",
"z 	c #B92E1F",
"A 	c #F9E4BF",
"B 	c #7B624B",
"C 	c #F1D185",
"D 	c #664A31",
"E 	c #4D2E21",
"F 	c #645A38",
"G 	c #5D321E",
"H 	c #722216",
"I 	c #5E5238",
"J 	c #F0D5B0",
"K 	c #3D2118",
"L 	c #E97F41",
"M 	c #ED7330",
"N 	c #300705",
"O 	c #3A1402",
"P 	c #533A27",
"Q 	c #FED2C2",
"R 	c #6B563D",
"S 	c #E69E56",
"T 	c #9E4E1E",
"U 	c #FDCE93",
"V 	c #2C2822",
"W 	c #3E2E1D",
"X 	c #DC5523",
"Y 	c #58422C",
"Z 	c #AC2B0B",
"` 	c #F9B171",
" .	c #421F1B",
"..	c #F4EFCA",
"+.	c #FDB877",
"@.	c #60452A",
"#.	c #F2845E",
"$.	c #665635",
"%.	c #5F4A32",
"&.	c #6E5E3A",
"*.	c #726248",
"=.	c #9E5E2E",
"-.	c #F9A64A",
";.	c #EE9276",
">.	c #EAE2CA",
",.	c #DA734F",
"'.	c #6A5A3D",
").	c #65190A",
"!.	c #FCD68C",
"~.	c #F77F37",
"{.	c #B84E1C",
"].	c #F1E4CF",
"^.	c #EADEAA",
"/.	c #56462F",
"(.	c #7A361E",
"_.	c #FDC9AB",
":.	c #2F1913",
"<.	c #801C09",
"[.	c #250705",
"}.	c #4B341F",
"|.	c #766A4F",
"1.	c #2D0F0C",
"2.	c #FCC079",
"3.	c #EADECE",
"4.	c #5F5246",
"5.	c #6A3115",
"6.	c #6A2613",
"7.	c #C64211",
"8.	c #FAB68A",
"9.	c #853216",
"0.	c #4A1C02",
"a.	c #DC6128",
"b.	c #2E2014",
"c.	c #EEBC66",
"d.	c #FEE5CF",
"e.	c #38281A",
"f.	c #6D432B",
"g.	c #F9994D",
"h.	c #4C3429",
"i.	c #F78840",
"j.	c #EACA86",
"k.	c #725E43",
"l.	c #807258",
"m.	c #884A1E",
"n.	c #F8C66C",
"o.	c #E66E3A",
"p.	c #632213",
"q.	c #665A40",
"r.	c #604534",
"s.	c #CA5C48",
"t.	c #442F28",
"u.	c #625232",
"v.	c #F79D5D",
"w.	c #FCDF9B",
"x.	c #8A1604",
"y.	c #5A3D2C",
"z.	c #AA3612",
"A.	c #9D3416",
"B.	c #624E36",
"C.	c #EEDECE",
"D.	c #6A5A43",
"E.	c #62563F",
"F.	c #3A321E",
"G.	c #671008",
"H.	c #80442F",
"I.	c #F2D59B",
"J.	c #694E38",
"K.	c #AD4620",
"L.	c #78321E",
"M.	c #FAD5AD",
"N.	c #FBAC5F",
"O.	c #993F1B",
"P.	c #17150A",
"Q.	c #72522A",
"R.	c #211812",
"S.	c #66563A",
"T.	c #F9B74F",
"U.	c #533E25",
"V.	c #FA9050",
"W.	c #D67642",
"X.	c #501F19",
"Y.	c #73664C",
"Z.	c #B5441C",
"`.	c #8F2B13",
" +	c #FDD59D",
".+	c #FBDBB4",
"++	c #785237",
"@+	c #F3EAD0",
"#+	c #57352D",
"$+	c #7C2911",
"%+	c #FDC689",
"&+	c #E8ECC4",
"*+	c #C6865A",
"=+	c #A8220E",
"-+	c #36221A",
";+	c #FBB865",
">+	c #382E20",
",+	c #EAEAD9",
"'+	c #8B2110",
")+	c #665E42",
"!+	c #5E4E37",
"~+	c #662816",
"{+	c #D46842",
"]+	c #625236",
"^+	c #F8E4CD",
"/+	c #281811",
"(+	c #6E5E3E",
"_+	c #442E1C",
":+	c #1D0906",
"<+	c #B26A3E",
"[+	c #66563F",
"}+	c #FBDBD3",
"|+	c #72593F",
"1+	c #5A462F",
"2+	c #F7C87A",
"3+	c #3E120F",
"4+	c #FAA04D",
"5+	c #311F21",
"6+	c #521414",
"7+	c #62523B",
"8+	c #EC8840",
"9+	c #FBB259",
"0+	c #523520",
"a+	c #5A4237",
"b+	c #E85E2A",
"c+	c #FDC596",
"d+	c #675239",
"e+	c #6E5A44",
"f+	c #594A32",
"g+	c #75432C",
"h+	c #F8C064",
"i+	c #E8D69C",
"j+	c #6A5E44",
"k+	c #390D0A",
"l+	c #F9E4D9",
"m+	c #862C22",
"n+	c #6E5E45",
"o+	c #3F2A23",
"p+	c #F8DEC7",
"q+	c #26110C",
"r+	c #52352B",
"s+	c #B23A2E",
"t+	c #AA3206",
"u+	c #4B0B07",
"v+	c #F9DA9E",
"w+	c #964636",
"x+	c #FBA65C",
"y+	c #44321F",
"z+	c #4D3B27",
"A+	c #7B694E",
"B+	c #381914",
"C+	c #FBCE81",
"D+	c #8F3316",
"E+	c #46362A",
"F+	c #705038",
"G+	c #533E2C",
"D.[+7+f+7+q.]+) n+F ]+n+*.(+'.d+B.B.B.7+S.*.|.n+u.B.R k.$.]+R (+'.u.]+'.I I I I 7+D.n+'.d+D.n+j+D.q.D.q.j+q.q.|.) E.E.q.",
"n+D.[+D.I F j+F ) R d d '.k.k.B A+B *.k.Y.8 a a %.@.f.F+J.&.d 5 Q.@.d+!+f+4.4.4.e+e+F+|+%.]+[+R D.k.*.> q.q.Y.|.> )+> j+",
"D.e+D.[+I F q.8 '.&.&.5 d R 5 [ |+|+|+k.'.$.a %.B.J.4 |+d+'.d 5 d k d+B.4.E.4.E.R R F+[ R n+*.*.> n+R 7+> D.j+D.7+!+E.E.",
"d+n+e+j+D.> )+8 > > &.d d e+R ) 7+7+$.'.&.F u.u.I !+I E.a /.a d+5 [ d d+n+*.j+R e+e+d+R d+d+S.d+d+I a /.7+I D.Y.> D.E.a ",
"R D.n+Y.> > > F F '.'.$.'.'.R ) ) ) ) d F+Q.J.D 1+b * b b z+f+r.d+[ J.d+|+B *.n+e+R B.!+) 7+7+]+d+[+e+n+> q.[+D.[+j+Y.Y.",
"n+D.e+> E.)+)+F ) F 5 &.> 8 ) ) F F k D f.g+< g+0 y.z+G+a+#+r.1+1+]+Y %.d+|+5 d+q.q.q.)+d+d+]+7+[+D.> *.n+[+D.D.E.E.j+> ",
"k.k.R 4.F )+)+F u.) d |+> 8 ) I F d : < (.D+m+m+6.5.( g G G #+y.#+a+Y D %.Q.k @.a ) q.)+I a a !+I a !+B.f+!+D.|.*.j+j+q.",
"e+e+d+I q.> > F F $.d u.)+F F $.Q.: ^ 9.`.'+i x.x.x.<.).).p.( ( G #+@.@.@.k Q.@.f+I ) )+q.[+d+$.d+B.7+[+j+I E.R [+e+Y.|.",
"J.7+R n+4.F )+)+n+n+e+d+)+F $.Q.H.^ A.= Z =+=+=+=+Z Z = '+'+).p.( X.0 0+0+@.%.D a ) I ) q.7+!+!+7+$.D.*.Y.[+E.D.q.j+j+j+",
"R k.R a I q.)+E.'.k.|+k f+d ++m.^ K.& t+7.X w X X X # 7.& z.`.$+).X.( #+Y @.D k d+R E.E.f+'.n+u.f+7+D.[+*.q.!+4.D.[+q.j+",
"e+k.n+D.E.> > [+]+R F+J.5 Q.m.O.A.t+& # a.o.~.i.~.~.b+# X 7.& A.$+p.( X.#+0 r.J.d+R d+d+]+d+[+R ]+]+D.e+q.E.[+q.[+4.!+) ",
"|+e+R D.)+Y.|.j+J.J.F+: ++H.^ O.' # o.V.g.x+N.N.{ @ t ~.o.a.w {.O.$+H 0.( E P a+r.r.%.J.|+S.S.n+n+q.'.Y.d+[+[+e+q.!+E.q.",
"*.k.D.j+[+Y.A+*.F+F+F+: H.^ O.t+Z.~ i.x++.2.r c.c.T.9+{ t ~.M ~ x K.9.).u X.g h.G+a+@.d+R a f+]+]+!+I q.D.D.q.D.q.7+q.> ",
"R D.n+e+E.j+*.R d+F+: H.9.D+A.K.a.i.x+N.2.2+C C C+2+h+T.T.{ @ L ~ w K.; p.( g #+y.r.J.5 R d+B.f+%.!+d+d+j+q.[+[+[+E.E.E.",
"1+B.D.D.*.> n+d+J.F+: H.m+'+A.{+g.` c+U  +I.I.v+w.!.C+n.2+h+9+@ i.M ~ {.; 6.( #+a+a+r.D R (+e+]+) > Y.D.I I !+[+n+j+q.) ",
"4.R j+*.D.n+e+|+F+4 F+H.m+= K.W.v.` ;+%+v+v+v+v+M. + + +7 f h+{ @ t ~.~ `.6.X.g r+P Y %.f+S.S.]+d+n+n+[+7+I E.D.*.Y.> q.",
"n+[+4.[+f+d+R |+F+: g+H.'+= x ,.v.+.%+ + +M.M..+p+.+M.M.i+i+h+{ @ @ ~.b+z.H 6+m t.E+G+r.Y ]+[+[+D.n+*.D.n+n+j+D.n+n+q.E.",
"Y.A+k.n+e+R |+[ [ : f.(.'+s+x h v.2.U U M..+].o ].^+^+p+d.C f h+T.{ t M # '+). .>+z+r+r+1+!+7+) !+]+I I d+D.n+D.7+7+[+E.",
"j+j+[+e+k.F+F+F+|+: f.< `.& w L v.+.c+_.d.d.......@+d.p+p+I.C C+| T.@ i.b+=+G.k+l V t.z+/.B.d+7+a a ]+) ]+[+q.S.[+D.D.q.",
")+E.!+[+k.e+J.4 F+F+f.L.`.& ~ 8+x++._.M.p+^+^+^+^+l+l+l+p+.+!.C+| T.9+p b+z - u+R.$ V G+f+4.q.7+a I S.'.]+]+]+S.D.e+e+'.",
"q.E.7+B.R F+J.F+++F+f.~+`.Z.~ V.N.2. +d./ j j 3.p+^+^+p+].A v+C+| | T.N.q z - u+R._ V % f+!+E.E.7+E.[+[+) $.7+S.q.'.[+[+",
"F )+d+f+f+B.J.F+++[ f.5.; ' ~ i.x++.I.].>.>.C.C.}+}+}+C.,+^+.+U r | ;+N.q =+G.k+_ _ b.h./.f+7+[+D.D.[+]+B.7+R [+S.7+[+q.",
"[+> k.%.d+d+J.D f.D f.5.; ' {+~.g.N.f / ,+,+l+}+Q p+C.>.&+]..+U h+2+n.+.#.Z , 1._ _ :.g P a+f+B.[+D.F ]+a I '.D.'.7+7+q.",
"q.*.Y.R (+|+J.@.@.0 P ~+! ' x L V.-.f i+>.].}+}+}+A @+@+,+l+.+U 2+C+%++.W.O.0.y _ l m u r+b !+4.d+S.e+n+I ) S.n+j+q.E.E.",
"q.q.> R ) R J.@.0 @.0 G ).`.Z.o.i.4+n.w.s p+}+}+}+p+..&+>.^+p+I.f 2+2.` c $+0.y P.R.3+X.h.a+7+7+7+[+n+Y.S.) q.> > D.7+I ",
") ) R ]+d d+d+D %.f.0 G p.$+s+w ~.8+-.h+!. +Q Q p+d.&+&+d.M.o i++ w.C+p K.$+k+n P.P.:. .3 z+G+f+7+7+!+d+'.n+> k.D.) 4.I ",
"S.) D.S.$.R d d+k k f.G X.H A.# M i.S T.c.2.c+_.Q J 6 &+J J 6 s i+o +.{+<.G.N :+b.l 5+o+t.G+/.%.d+7+a !+) S.q.q.q.q.q.q.",
"n+(+> '.S.S.d d+J.%.0 #+u p.'+K.M t @ { N.2.c+2._./ 6 &+o I.6 s w.U #.z.x.] N q+l V $ V o+r+a+B.[+[+!+I D.[+E.[+E.q.)+)+",
"S.) ) a S.S.'.d+D %.y.E g u G.'+c L g.-.{ 9+` ` c+J / / o i+^.o  +p s.i - u+N n R.l $ V >+t.P a+%.%.f+!+S.q.F q.E.7+q.)+",
"S.'.) a F 8 R $.k @.U.0+g X.u+G.`.x h v.9++.8.` c+ +v+^.o I. +M.p s.= G.u+N q+R.R.R.5+E+t.P z+G+f+f+1+f+f+7+q.q.E.E.q.n+",
"'.*.'.a ]+) d+!+a @.Y P _+}.X.6+).$+v h S 9+2.8.c+U U !.o .+c+;.s.A.).6+1.q+R.5+5+5+o+E+>+r+z+P 1+f+!+[+f+I j+)+E.4.E.q.",
"d+'.F /.!+]+]+a @.f+Y U.U.P E X.u+, ! T h S ` +.2.%+2.+.8.p o.s+'+).O R.P.R./+B+5+o+o+y+o+t.h.G+1+%.!+[+!+[+E.q.F 4.4.I ",
"'.n+> u.d+[+R ]+%.%.1+Y /.0+K  .6+2 ] 6+6.m.=.1 *+*+} e e w+x.- G.u+9 P.P.9 :+1.B+ .o+t.y+E+E+z+/./.b f+a I I E.q.q.E.E.",
"j+'.]+I q.q.q.S.B.1+1+a 1+b E+o+ .B+O 2 k+m X.u u ( p.u X. .3+2 2 1.:+P.l R.5+B+ .o+t.h.P y.a+/./.f+f+* * !+I !+E.D.q.I ",
") q.'.S.S.]+) ) !+f+/.f+G+P h.3 3 K B+N N k+k+N k+k+3+k+1.1.[.:+:+:+. n R.q+/+5+o+t.h.r+b a+a+/.f+I 7+I * a ) q.)+q.[+[+",
"> Y.D.I q.) !+!+!+1+/.a+G+P r+}.3 g b.1.1.q+[.[.. [.[.[.. :+:+. :+n 9 n q+/+5+-+o+o+o+t.E+U.b G+/.!+I I I !+E.j+D.B.B.e+",
"Y.Y.F a n+S.I !+I %./.Y %.Y 0+E 3 3 3 :.O 1.1.. [.[.:+. . :+:+:+q+q+q+/+/+:.5+-+o+t.E t._+}.U.U.b /././.)+F E.I I !+7+e+",
"I I 7+q.> q.]+E.7+!+f+f+%.f.0+3 g _+3 e.-+b.y n :+P.9 :+. :+:+n /+/+R.:.l -+e.W E r+P y.}.U.1+1+U.b /./.[+[+7+!+!+7+R [+",
"a a E.*.) 7+) [+[+7+B.J.Y 0 0 }.P P }.3 _+e./+n 9 9 P.P.:+q+n n /+q+/+-+e.e.o+t.y+r+P y.r+Y %.%.Y b /.b a I ]+%.d+D.e+S.",
"q.q.D.j+7+E.D.j+E.!+B.R @.@.U.@.@.@.P F.y+W e.l R.R.R.l R.l /+R./+b.b.o+t.t.y+y+h.z+P P U.y.Y Y Y Y Y b b 1+f+!+B.S.[+d+",
")+> D.D.) D.*.*.[+!+!+'.k D @.Y @.@.U.y+e.3 e.e.b.b.:.5+/+b./+/+/+b.e.F._+_+h.h.P y.Y Y Y Y P P Y %.1+Y 1+Y /.f+1+/.a R ",
"[+q.n+j+'.> j+D.n+I u.A+5 D U.@.f+@.U.U.}.}.}.3 e.-+e.o+R.b.b.b.e.>+3 o+W y+y+}.z+Y @.P P P U.U.Y Y @.@.1+1+%.B.7+d+d+[+",
"E.q.'.[+S.D.I a [+S.j+l.&.F a u.$.a @.%.1+P 0+E E }.E _+>+F.>+e.b.>+W W }.0+z+P 0+y+P U.1+Y /.Y Y /.f+%.1+1+B.B.!+I ) [+",
"8 j+j+j+n+D.q.q.k.'.'.|.&.$.$.F $.k B.%.@.y.0+}.E E g g }.% F.e.W y+z+U.z+U.U.1+b z+z+1+@.f+@.Y Y Y Y 1+%.B.%.a !+B.7+) ",
"j+n+*.> D.D.D.j+'.u.a I 8 $.$.d $.u.a B.R R F+D r.0 a+r.G+b z+% z+b /.a U.U.U.1+@.%.f+a U.b f+%.1+1+@.f+%.7+B.B.a a 7+7+",
"j+)+j+k.> D.q.q.$.F 8 Y.F F 8 > 8 F '.D.!+d+d+B.Y a+a+/.f+* a a /.Y Y 1+G+U.U.b f+a B.f+b Y /.f+%.1+f+%.]+d+[+!+a !+I I ",
"q.[+j+*.j+D.*.Y.k.*.A+A+F F )+> *.*.> > *.*.n+D.n+k.'.a /./.f+a f+Y P U.G+%.B./.b /././.* b b b b U.1+%.I d+E.!+I E.F I ",
"D.q.n+Y.d+!+[+n+'.&.&.) 8 D.D.j+n+> j+j+)+> )+F F )+) b * /./.f+/.b Y Y a+%.%.r.G+z+b b /.z+z+/.1+/.b Y %.!+!+a I )+q.) "};
