<?xml version="1.0" encoding="UTF-8" standalone="no"?>
<!-- Created with Inkscape (http://www.inkscape.org/) -->
<svg
   xmlns:dc="http://purl.org/dc/elements/1.1/"
   xmlns:cc="http://creativecommons.org/ns#"
   xmlns:rdf="http://www.w3.org/1999/02/22-rdf-syntax-ns#"
   xmlns:svg="http://www.w3.org/2000/svg"
   xmlns="http://www.w3.org/2000/svg"
   xmlns:xlink="http://www.w3.org/1999/xlink"
   xmlns:sodipodi="http://sodipodi.sourceforge.net/DTD/sodipodi-0.dtd"
   xmlns:inkscape="http://www.inkscape.org/namespaces/inkscape"
   width="256"
   height="256"
   id="svg4426"
   sodipodi:version="0.32"
   inkscape:version="0.46"
   version="1.0"
   sodipodi:docname="gambas.svg"
   inkscape:output_extension="org.inkscape.output.svg.inkscape">
  <defs
     id="defs4428">
    <linearGradient
       inkscape:collect="always"
       xlink:href="#linearGradient3602"
       id="linearGradient4248"
       gradientUnits="userSpaceOnUse"
       x1="221.64285"
       y1="179.13533"
       x2="223.35713"
       y2="157.17104" />
    <linearGradient
       inkscape:collect="always"
       xlink:href="#linearGradient3428"
       id="linearGradient4246"
       gradientUnits="userSpaceOnUse"
       x1="203.04065"
       y1="137.41652"
       x2="232.33508"
       y2="137.41652" />
    <linearGradient
       id="linearGradient3602">
      <stop
         style="stop-color:#ff0d00;stop-opacity:1;"
         offset="0"
         id="stop3604" />
      <stop
         id="stop3610"
         offset="0.5"
         style="stop-color:#ff0c00;stop-opacity:1;" />
      <stop
         style="stop-color:#f1d3d3;stop-opacity:1;"
         offset="1"
         id="stop3606" />
    </linearGradient>
    <linearGradient
       inkscape:collect="always"
       id="linearGradient3428">
      <stop
         style="stop-color:#00ffff;stop-opacity:1;"
         offset="0"
         id="stop3430" />
      <stop
         style="stop-color:#00ffff;stop-opacity:0;"
         offset="1"
         id="stop3432" />
    </linearGradient>
    <inkscape:perspective
       sodipodi:type="inkscape:persp3d"
       inkscape:vp_x="0 : 526.18109 : 1"
       inkscape:vp_y="0 : 1000 : 0"
       inkscape:vp_z="744.09448 : 526.18109 : 1"
       inkscape:persp3d-origin="372.04724 : 350.78739 : 1"
       id="perspective4434" />
    <linearGradient
       inkscape:collect="always"
       xlink:href="#linearGradient3602"
       id="linearGradient3479"
       gradientUnits="userSpaceOnUse"
       gradientTransform="matrix(0.8002348,0,0,0.8002348,-58.206262,-13.04308)"
       x1="221.64285"
       y1="179.13533"
       x2="223.35713"
       y2="157.17104" />
    <linearGradient
       inkscape:collect="always"
       xlink:href="#linearGradient3428"
       id="linearGradient4329"
       gradientUnits="userSpaceOnUse"
       x1="203.04065"
       y1="137.41652"
       x2="232.33508"
       y2="137.41652" />
  </defs>
  <sodipodi:namedview
     id="base"
     pagecolor="#ffffff"
     bordercolor="#666666"
     borderopacity="1.0"
     gridtolerance="10000"
     guidetolerance="10"
     objecttolerance="10"
     inkscape:pageopacity="0.0"
     inkscape:pageshadow="2"
     inkscape:zoom="1.979899"
     inkscape:cx="98.316858"
     inkscape:cy="147.89026"
     inkscape:document-units="px"
     inkscape:current-layer="layer1"
     showgrid="false"
     inkscape:window-width="1280"
     inkscape:window-height="740"
     inkscape:window-x="0"
     inkscape:window-y="0" />
  <metadata
     id="metadata4431">
    <rdf:RDF>
      <cc:Work
         rdf:about="">
        <dc:format>image/svg+xml</dc:format>
        <dc:type
           rdf:resource="http://purl.org/dc/dcmitype/StillImage" />
        <dc:title>Gambas 3</dc:title>
        <dc:date>15/09/2008</dc:date>
        <dc:creator>
          <cc:Agent>
            <dc:title>Fabien Bodard</dc:title>
          </cc:Agent>
        </dc:creator>
        <dc:rights>
          <cc:Agent>
            <dc:title>Common Creative</dc:title>
          </cc:Agent>
        </dc:rights>
        <dc:publisher>
          <cc:Agent>
            <dc:title>Fabien Bodard</dc:title>
          </cc:Agent>
        </dc:publisher>
        <dc:identifier>gbFBodard150908</dc:identifier>
        <dc:relation>http://gambas.sf.net</dc:relation>
        <dc:subject>
          <rdf:Bag>
            <rdf:li>gambas3 logo basic shrimp</rdf:li>
          </rdf:Bag>
        </dc:subject>
        <dc:description>A pretty shrimp, a malicious new gambas logo... we got the power !</dc:description>
        <dc:contributor>
          <cc:Agent>
            <dc:title>Fabien Bodard</dc:title>
          </cc:Agent>
        </dc:contributor>
        <cc:license
           rdf:resource="http://creativecommons.org/licenses/by-sa/3.0/" />
      </cc:Work>
      <cc:License
         rdf:about="http://creativecommons.org/licenses/by-sa/3.0/">
        <cc:permits
           rdf:resource="http://creativecommons.org/ns#Reproduction" />
        <cc:permits
           rdf:resource="http://creativecommons.org/ns#Distribution" />
        <cc:requires
           rdf:resource="http://creativecommons.org/ns#Notice" />
        <cc:requires
           rdf:resource="http://creativecommons.org/ns#Attribution" />
        <cc:permits
           rdf:resource="http://creativecommons.org/ns#DerivativeWorks" />
        <cc:requires
           rdf:resource="http://creativecommons.org/ns#ShareAlike" />
      </cc:License>
    </rdf:RDF>
  </metadata>
  <g
     inkscape:label="Layer 1"
     inkscape:groupmode="layer"
     id="layer1">
    <g
       id="g4454">
      <path
         sodipodi:nodetypes="cccc"
         id="path4860"
         d="M 247.11108,138.88965 C 234.65959,112.93246 206.82469,95.307577 121.04995,129.06522 L 123.17663,133.1323 C 145.38801,122.07119 219.77304,89.393396 247.11108,138.88965 z"
         style="fill:#000000;fill-rule:evenodd;stroke:none;stroke-width:1px;stroke-linecap:butt;stroke-linejoin:miter;stroke-opacity:1" />
      <g
         transform="matrix(0.1672889,-0.8480899,0.8480899,0.1672889,-213.54172,618.39735)"
         id="g4504">
        <g
           id="g4506"
           transform="matrix(1.0150594,0,0,1,114.12199,98.756399)">
          <path
             sodipodi:nodetypes="csssssccc"
             id="path4508"
             d="M 608.21429,180.84433 C 608.66762,182.07167 606.52465,182.93139 606.60715,184.23718 C 606.67027,185.23637 610.89708,181.92134 613.48214,183.96932 C 614.87181,185.07027 612.16566,190.05036 613.92857,189.86218 C 614.88998,189.75956 626.99979,190.34274 624.64286,192.89789 C 619.96782,197.96611 605.83151,198.4619 598.39286,197.36218 C 591.02073,196.27229 577.94643,183.25504 577.94643,183.25504 C 577.94643,183.25504 586.78572,173.61218 587.58929,173.61218 C 593.05775,175.89384 601.28015,175.15708 608.21429,180.84433 z"
             style="fill:#3398c3;fill-opacity:1;fill-rule:evenodd;stroke:#000000;stroke-width:2;stroke-linecap:butt;stroke-linejoin:miter;stroke-miterlimit:4;stroke-dasharray:none;stroke-opacity:1" />
          <path
             sodipodi:nodetypes="csssssssccc"
             id="path4510"
             d="M 575.71429,150.57647 C 574.23538,148.1575 618.42865,155.09638 629.95761,178.07647 C 630.65003,179.45664 616.02166,178.63611 612.85714,177.00504 C 611.86284,176.49255 612.76918,174.94874 611.78572,174.41575 C 610.11652,173.51112 607.54337,175.72829 605.71429,175.21932 C 604.03397,174.75175 604.58635,171.60797 602.85715,171.38004 C 601.47216,171.19747 598.16626,171.70892 597.88098,173.07647 C 596.92302,177.66861 598.12999,183.12344 595,185.57646 C 583.27377,194.76649 548.54487,190.37248 545,185.57647 L 534.28572,160.57647 L 575.71429,150.57647 z"
             style="fill:#3398c3;fill-opacity:1;fill-rule:evenodd;stroke:#000000;stroke-width:2;stroke-linecap:butt;stroke-linejoin:miter;stroke-miterlimit:4;stroke-dasharray:none;stroke-opacity:1" />
        </g>
        <path
           style="opacity:0.8;fill:#ffffff;fill-opacity:1;fill-rule:evenodd;stroke:none;stroke-width:1px;stroke-linecap:butt;stroke-linejoin:miter;stroke-opacity:1"
           d="M 715.01012,277.54715 C 712.10642,284.72269 662.95813,278.53112 663.58155,275.76143 L 663.93869,280.40429 C 682.57487,287.07316 708.76002,287.44719 715.01012,277.54715 z"
           id="path4512"
           sodipodi:nodetypes="cccc" />
        <path
           style="opacity:0.2;fill:#000000;fill-opacity:1;fill-rule:evenodd;stroke:none;stroke-width:1px;stroke-linecap:butt;stroke-linejoin:miter;stroke-opacity:1"
           d="M 691.61726,249.69001 C 703.65159,248.74225 734.22781,252.39399 749.65298,272.90429 C 731.42334,263.51382 710.98478,255.26489 691.61726,249.69001 z"
           id="path4514"
           sodipodi:nodetypes="ccc" />
        <path
           style="opacity:0.8;fill:#ffffff;fill-opacity:1;fill-rule:evenodd;stroke:none;stroke-width:1px;stroke-linecap:butt;stroke-linejoin:miter;stroke-opacity:1"
           d="M 740.36727,293.26143 C 739.8059,294.10498 720.66126,291.465 718.58155,287.54715 C 717.90571,286.27395 714.75602,289.5312 715.90298,290.40429 C 724.5295,296.97099 740.98934,293.18367 740.36727,293.26143 z"
           id="path4516"
           sodipodi:nodetypes="cssc" />
      </g>
      <g
         transform="matrix(0.8644316,0,0,0.8644316,-404.99207,-42.333558)"
         id="g4518">
        <path
           style="fill:#3398c3;fill-opacity:1;fill-rule:evenodd;stroke:#000000;stroke-width:2;stroke-linecap:butt;stroke-linejoin:miter;stroke-miterlimit:4;stroke-dasharray:none;stroke-opacity:1"
           d="M 528.57144,260.21933 C 535.81509,247.59528 556.67669,249.20287 567.14287,252.36218 C 585.1947,257.81128 587.18697,277.58863 585.35715,277.71933 C 571.14586,274.81756 555.96767,270.94889 545.35715,271.6479 C 552.08041,280.0285 561.09819,288.25311 575.35716,296.6479 C 575.35716,296.6479 553.63121,309.64002 545.35715,305.21933 C 531.27937,297.69781 521.03698,273.35019 528.57144,260.21933 z"
           id="path4520"
           sodipodi:nodetypes="cscccss" />
        <path
           style="opacity:0.8;fill:#ffffff;fill-opacity:1;fill-rule:evenodd;stroke:none;stroke-width:1px;stroke-linecap:butt;stroke-linejoin:miter;stroke-opacity:1"
           d="M 543.30358,254.77289 C 552.31012,250.5633 567.14252,252.13766 579.28573,265.93361 C 569.82065,259.6329 552.08323,253.77206 543.30358,254.77289 z"
           id="path4522"
           sodipodi:nodetypes="ccc" />
        <path
           style="opacity:0.2;fill:#000000;fill-opacity:1;fill-rule:evenodd;stroke:none;stroke-width:1px;stroke-linecap:butt;stroke-linejoin:miter;stroke-opacity:1"
           d="M 527.14286,278.79075 C 536.62785,294.92378 548.88697,304.95371 567.85715,300.21932 C 544.26619,314.2288 533.70527,300.73043 527.14286,278.79075 z"
           id="path4524"
           sodipodi:nodetypes="ccc" />
      </g>
      <path
         sodipodi:nodetypes="czcczcc"
         id="path4526"
         d="M 79.027891,90.299303 C 41.547416,91.362502 8.5477829,125.72764 11.416987,151.73569 C 14.2862,177.74374 39.851738,193.68189 45.994251,195.266 C 55.62363,198.35329 61.646652,192.53431 56.490923,183.53443 C 53.321113,179.18924 47.794897,163.759 54.94729,154.51423 C 62.099684,145.26945 88.687629,138.81384 92.303088,140.62157 L 79.027891,90.299303 z"
         style="fill:#3398c3;fill-opacity:1;fill-rule:evenodd;stroke:#000000;stroke-width:1.72886324;stroke-linecap:butt;stroke-linejoin:miter;stroke-miterlimit:4;stroke-dasharray:none;stroke-opacity:1" />
      <path
         sodipodi:nodetypes="cccc"
         id="path4528"
         d="M 234.9343,163.46726 C 226.19313,136.03722 201.06385,114.73141 111.44408,136.29942 L 112.98771,140.62157 C 137.34652,133.32575 215.03663,110.74852 234.9343,163.46726 z"
         style="fill:#000000;fill-rule:evenodd;stroke:none;stroke-width:1px;stroke-linecap:butt;stroke-linejoin:miter;stroke-opacity:1" />
      <path
         sodipodi:nodetypes="cczzccccccc"
         id="path4530"
         d="M 179.7496,51.862965 C 189.35914,97.003463 119.00014,150.62893 90.759455,141.54774 C 76.68051,136.42226 63.948668,123.0833 69.457388,100.48724 C 74.966108,77.891182 110.43316,73.11544 123.79309,77.641552 C 137.15303,82.167655 156.33669,66.149158 156.20928,65.909979 C 156.40814,68.769156 155.63947,70.942267 154.20256,72.779115 L 163.00124,65.292524 C 163.42356,67.38584 163.06071,69.1651 162.46097,70.849592 L 171.64556,60.970375 C 172.22893,63.26704 172.24539,65.336939 171.79993,67.222065 C 174.94439,64.11267 177.62687,59.263615 179.7496,51.862965 z"
         style="fill:#3398c3;fill-opacity:1;fill-rule:evenodd;stroke:#000000;stroke-width:1.72886324;stroke-linecap:butt;stroke-linejoin:miter;stroke-miterlimit:4;stroke-dasharray:none;stroke-opacity:1" />
      <path
         sodipodi:nodetypes="cscssc"
         id="path4532"
         d="M 89.215831,81.191893 C 77.480178,87.031103 66.767701,95.177091 69.457397,115.46043 C 70.486848,123.2237 77.44197,135.06598 86.437306,138.46049 C 77.107279,124.84244 77.270475,119.76833 75.940643,113.76245 C 73.595025,103.16898 83.337826,88.926646 91.784878,85.95282 C 100.42326,82.911646 95.957922,78.914479 89.215831,81.191893 z"
         style="opacity:0.8;fill:#ffffff;fill-opacity:1;fill-rule:evenodd;stroke:none;stroke-width:1px;stroke-linecap:butt;stroke-linejoin:miter;stroke-opacity:1" />
      <path
         sodipodi:nodetypes="cscsc"
         id="path4550"
         d="M 61.164507,96.360127 C 61.085887,95.652512 13.098108,118.16457 14.4479,148.5343 C 15.521775,172.69597 48.72703,193.06784 48.066389,190.22996 C 47.029831,190.41586 17.960682,165.0538 20.12375,147.44278 C 23.664669,118.61364 61.059954,96.046459 61.164507,96.360127 z"
         style="opacity:0.8;fill:#ffffff;fill-opacity:1;fill-rule:evenodd;stroke:none;stroke-width:1px;stroke-linecap:butt;stroke-linejoin:miter;stroke-opacity:1" />
      <g
         transform="matrix(0.8644316,0,0,0.8644316,-350.11637,-22.645359)"
         id="g4552">
        <path
           style="fill:none;fill-rule:evenodd;stroke:#000000;stroke-width:2;stroke-linecap:butt;stroke-linejoin:miter;stroke-miterlimit:4;stroke-dasharray:none;stroke-opacity:1"
           d="M 456.58895,142.71982 C 457.55769,164.06654 465.7501,182.61416 490.93414,193.22744 L 491.43921,193.73252"
           id="path4554"
           sodipodi:nodetypes="ccc" />
        <path
           style="fill:none;fill-rule:evenodd;stroke:#000000;stroke-width:2;stroke-linecap:butt;stroke-linejoin:miter;stroke-miterlimit:4;stroke-dasharray:none;stroke-opacity:1"
           d="M 434.87067,159.89241 C 439.6127,179.61297 449.75122,192.97991 479.31738,198.27821"
           id="path4556"
           sodipodi:nodetypes="cc" />
        <path
           style="fill:none;fill-rule:evenodd;stroke:#000000;stroke-width:2;stroke-linecap:butt;stroke-linejoin:miter;stroke-miterlimit:4;stroke-dasharray:none;stroke-opacity:1"
           d="M 418.97871,190.25826 C 429.86776,202.43436 440.63261,209.73466 467.57807,205.85435"
           id="path4558"
           sodipodi:nodetypes="cc" />
        <path
           style="fill:none;fill-rule:evenodd;stroke:#000000;stroke-width:2;stroke-linecap:butt;stroke-linejoin:miter;stroke-miterlimit:4;stroke-dasharray:none;stroke-opacity:1"
           d="M 423.5244,219.84855 C 436.95492,223.35277 451.98445,223.29384 464.22637,214.58858"
           id="path4560"
           sodipodi:nodetypes="cc" />
        <path
           style="fill:none;fill-rule:evenodd;stroke:#000000;stroke-width:2;stroke-linecap:butt;stroke-linejoin:miter;stroke-miterlimit:4;stroke-dasharray:none;stroke-opacity:1"
           d="M 435.58496,235.23543 C 445.93494,234.26449 455.62888,235.36291 464.67017,219.99648"
           id="path4562"
           sodipodi:nodetypes="cc" />
        <path
           style="fill:none;fill-rule:evenodd;stroke:#000000;stroke-width:2;stroke-linecap:butt;stroke-linejoin:miter;stroke-miterlimit:4;stroke-dasharray:none;stroke-opacity:1"
           d="M 446.48743,245.75537 C 458.27254,246.76552 464.27218,243.14334 466.6292,232.03166"
           id="path4564"
           sodipodi:nodetypes="cc" />
      </g>
      <g
         transform="matrix(0.8644316,0,0,0.8644316,-346.20448,-29.613465)"
         id="g4566">
        <g
           id="g4568"
           style="fill:#00ffff">
          <path
             sodipodi:nodetypes="ccssc"
             id="path4570"
             d="M 475.78185,223.65828 L 469.97347,228.96158 L 456.84149,216.83975 C 454.70841,212.59417 459.38653,210.16689 461.63971,211.28391 L 475.78185,223.65828 z"
             style="fill:#3398c3;fill-opacity:1;fill-rule:evenodd;stroke:#000000;stroke-width:1px;stroke-linecap:butt;stroke-linejoin:miter;stroke-opacity:1" />
          <path
             sodipodi:nodetypes="cszsss"
             id="path4572"
             d="M 469.21586,226.4362 C 468.48121,222.53202 475.19674,220.07802 477.67589,225.93113 C 477.81455,226.25849 478.64024,237.60366 477.17081,241.84103 C 475.71546,246.03782 471.64883,247.74854 469.84721,246.38672 C 468.41835,245.30666 470.14248,243.57854 470.37003,240.94006 C 470.71954,236.88751 470.11266,231.20212 469.21586,226.4362 z"
             style="fill:#3398c3;fill-opacity:1;fill-rule:evenodd;stroke:#000000;stroke-width:1px;stroke-linecap:butt;stroke-linejoin:miter;stroke-opacity:1" />
        </g>
        <g
           id="g4574"
           style="fill:#00ffff">
          <path
             sodipodi:nodetypes="ccssc"
             id="path4576"
             d="M 488.28249,213.43049 L 482.60038,219.74395 C 482.60038,219.74395 466.07015,210.96692 465.93286,210.77884 C 464.45819,208.75865 467.17315,203.33521 471.23616,204.8442 C 471.30301,204.86903 488.28249,213.43049 488.28249,213.43049 z"
             style="fill:#3398c3;fill-opacity:1;fill-rule:evenodd;stroke:#000000;stroke-width:1px;stroke-linecap:butt;stroke-linejoin:miter;stroke-opacity:1" />
          <path
             sodipodi:nodetypes="csssss"
             id="path4578"
             d="M 481.21142,218.22871 C 479.55946,217.14597 484.12247,210.73223 487.77741,212.67288 C 490.3179,214.0218 493.75608,222.40149 494.09086,228.0777 C 494.2983,231.59483 489.9722,237.29093 488.53503,236.15892 C 487.40113,235.26578 487.21133,230.89751 486.03644,226.98402 C 484.68551,222.48413 483.24144,219.55924 481.21142,218.22871 z"
             style="fill:#3398c3;fill-opacity:1;fill-rule:evenodd;stroke:#000000;stroke-width:1px;stroke-linecap:butt;stroke-linejoin:miter;stroke-opacity:1" />
        </g>
        <g
           id="g4580"
           style="fill:#00ffff">
          <path
             sodipodi:nodetypes="cccss"
             id="path4582"
             d="M 491.81803,193.73251 L 507.34912,201.18239 L 504.31866,208.00092 L 487.27234,200.80358 C 484.10175,199.46489 488.26404,192.02775 491.81803,193.73251 z"
             style="fill:#3398c3;fill-opacity:1;fill-rule:evenodd;stroke:#000000;stroke-width:1px;stroke-linecap:butt;stroke-linejoin:miter;stroke-opacity:1" />
          <path
             sodipodi:nodetypes="csscc"
             id="path4584"
             d="M 514.04138,203.83404 C 513.86537,204.18605 508.31518,201.10906 506.33896,200.42478 C 504.09183,199.64669 501.01843,205.31923 502.42462,207.24331 C 504.42909,209.98601 510.71567,210.64371 510.37958,210.90511 L 514.04138,203.83404 z"
             style="fill:#3398c3;fill-opacity:1;fill-rule:evenodd;stroke:#000000;stroke-width:1px;stroke-linecap:butt;stroke-linejoin:miter;stroke-opacity:1" />
        </g>
        <g
           id="g4586"
           style="fill:#00ffff">
          <path
             sodipodi:nodetypes="csccs"
             id="path4588"
             d="M 477.92842,203.58151 C 476.58077,201.17 480.22827,196.53085 484.11561,197.64686 C 484.48983,197.75429 499.2679,208.37973 499.2679,208.37973 L 493.71206,214.81945 C 493.71206,214.81945 478.41971,204.46063 477.92842,203.58151 z"
             style="fill:#3398c3;fill-opacity:1;fill-rule:evenodd;stroke:#000000;stroke-width:1px;stroke-linecap:butt;stroke-linejoin:miter;stroke-opacity:1" />
          <path
             sodipodi:nodetypes="csssss"
             id="path4590"
             d="M 492.95445,212.42034 C 491.43196,208.45399 498.28047,206.15909 500.9094,209.89496 C 502.13721,211.63977 503.05637,224.03404 502.55089,225.80486 C 500.91722,231.52802 498.31518,232.13876 497.24759,231.61324 C 496.80879,231.39724 497.08236,228.80782 496.50152,225.85762 C 495.55123,221.03087 493.79959,214.62208 492.95445,212.42034 z"
             style="fill:#3398c3;fill-opacity:1;fill-rule:evenodd;stroke:#000000;stroke-width:1px;stroke-linecap:butt;stroke-linejoin:miter;stroke-opacity:1" />
        </g>
      </g>
      <path
         sodipodi:nodetypes="ccc"
         id="path4624"
         d="M 78.719168,139.2323 C 81.595443,140.60608 84.267686,141.36777 87.517845,143.86318 C 82.952644,144.22392 80.883333,141.67278 78.719168,139.2323 z"
         style="opacity:0.7;fill:#ffffff;fill-opacity:1;fill-rule:evenodd;stroke:none;stroke-width:1px;stroke-linecap:butt;stroke-linejoin:miter;stroke-opacity:1" />
      <path
         sodipodi:nodetypes="csscc"
         id="path4596"
         d="M 85.253426,149.5078 C 85.457683,149.35998 93.350056,127.36243 98.113584,124.72921 C 104.2568,121.33333 109.50731,122.30525 110.91428,125.14527 C 115.38045,134.16036 104.03797,153.1882 106.62542,153.55308 L 85.253426,149.5078 z"
         style="fill:#3398c3;fill-opacity:1;fill-rule:evenodd;stroke:#000000;stroke-width:1.72886324;stroke-linecap:butt;stroke-linejoin:miter;stroke-miterlimit:4;stroke-dasharray:none;stroke-opacity:1" />
      <path
         sodipodi:nodetypes="cscc"
         id="path4602"
         d="M 97.625278,111.31193 C 98.464935,120.39722 111.08858,134.25863 119.27437,131.31759 C 124.57045,129.41479 129.57541,129.46426 135.53161,113.30864 C 123.82041,118.06343 107.58682,114.02339 97.625278,111.31193 z"
         style="fill:#666666;fill-rule:evenodd;stroke:#000000;stroke-width:1.72886324;stroke-linecap:butt;stroke-linejoin:miter;stroke-miterlimit:4;stroke-dasharray:none;stroke-opacity:1" />
      <path
         sodipodi:nodetypes="cccccccccccc"
         id="path4604"
         d="M 92.200239,104.81146 C 93.128275,107.365 95.815708,108.62343 98.036009,109.85368 C 101.75386,111.52618 105.62616,112.87657 109.67149,113.47391 C 113.58543,114.10062 117.52605,114.61188 121.47143,114.96674 C 128.52701,115.14042 134.81028,112.47069 141.30472,109.9592 C 142.26242,109.38801 140.49637,110.93941 142.15357,110.05162 C 142.7816,109.47793 145.27934,108.08124 145.20197,108.74548 C 140.22205,111.96789 134.41269,113.57004 128.72333,115.04297 C 123.81886,116.20342 118.69932,116.17965 113.75555,115.27998 C 108.4281,114.61874 103.01504,113.88057 98.078856,111.65018 C 95.273942,110.5886 92.591097,108.96219 90.608446,106.69765 C 89.838777,105.42809 91.39196,105.16873 92.200239,104.81146 z"
         style="fill:#000000;fill-opacity:1;fill-rule:evenodd;stroke:none;stroke-width:2;stroke-miterlimit:4;stroke-dasharray:none;stroke-opacity:1" />
      <path
         sodipodi:nodetypes="cccsc"
         id="path4606"
         d="M 101.24275,120.13781 C 103.41732,116.32009 119.51914,114.17667 121.41844,122.54449 C 117.62827,115.94821 123.33854,116.0029 132.68421,118.84316 C 129.35428,127.00305 125.03599,130.76648 120.1322,131.46338 C 112.62078,132.53086 105.27687,125.70442 101.24275,120.13781 z"
         style="fill:url(#linearGradient3479);fill-opacity:1;fill-rule:evenodd;stroke:#000000;stroke-width:0.79655021px;stroke-linecap:butt;stroke-linejoin:miter;stroke-opacity:1" />
      <path
         sodipodi:nodetypes="cccc"
         id="path4612"
         d="M 87.766626,145.63717 C 93.321688,140.28058 99.424468,139.88486 109.99726,139.81818 L 107.22973,146.5031 C 93.01731,147.46279 91.682363,142.69737 87.766626,145.63717 z"
         style="opacity:0.2;fill:#000000;fill-opacity:1;fill-rule:evenodd;stroke:none;stroke-width:1px;stroke-linecap:butt;stroke-linejoin:miter;stroke-opacity:1" />
      <path
         sodipodi:nodetypes="ccc"
         id="path4614"
         d="M 180.5986,59.426742 C 178.37013,92.898381 147.5758,123.73738 111.44408,140.31284 C 141.05113,121.3124 171.42017,93.790984 180.5986,59.426742 z"
         style="opacity:0.2;fill:#000000;fill-opacity:1;fill-rule:evenodd;stroke:none;stroke-width:1px;stroke-linecap:butt;stroke-linejoin:miter;stroke-opacity:1" />
      <path
         sodipodi:nodetypes="ccc"
         id="path4618"
         d="M 51.860033,154.9773 C 53.525698,157.96046 57.255366,160.6314 60.967442,162.38672 C 59.441505,159.17043 55.015113,156.97175 51.860033,154.9773 z"
         style="opacity:0.7;fill:#ffffff;fill-opacity:1;fill-rule:evenodd;stroke:none;stroke-width:1px;stroke-linecap:butt;stroke-linejoin:miter;stroke-opacity:1" />
      <path
         sodipodi:nodetypes="ccc"
         id="path4620"
         d="M 59.73255,148.95716 C 63.103807,150.16533 68.900495,151.72659 71.464114,153.7424 C 67.747422,153.00256 62.214437,152.06364 59.73255,148.95716 z"
         style="opacity:0.7;fill:#ffffff;fill-opacity:1;fill-rule:evenodd;stroke:none;stroke-width:1px;stroke-linecap:butt;stroke-linejoin:miter;stroke-opacity:1" />
      <path
         sodipodi:nodetypes="ccc"
         id="path4622"
         d="M 71.772837,142.47392 L 81.806425,149.26588 C 77.399293,149.01017 73.304204,146.01622 71.772837,142.47392 z"
         style="opacity:0.7;fill:#ffffff;fill-opacity:1;fill-rule:evenodd;stroke:none;stroke-width:1px;stroke-linecap:butt;stroke-linejoin:miter;stroke-opacity:1" />
      <path
         sodipodi:nodetypes="ccc"
         id="path4626"
         d="M 84.893682,151.73568 C 88.759774,156.26456 87.551688,166.19145 87.363484,167.01761 L 84.893682,151.73568 z"
         style="opacity:0.7;fill:#ffffff;fill-opacity:1;fill-rule:evenodd;stroke:none;stroke-width:1px;stroke-linecap:butt;stroke-linejoin:miter;stroke-opacity:1" />
      <path
         sodipodi:nodetypes="ccc"
         id="path4628"
         d="M 75.014456,155.59476 C 77.795747,160.01913 78.689345,165.30134 79.954069,170.10486 C 80.914884,161.86213 76.305338,155.36752 75.014456,155.59476 z"
         style="opacity:0.7;fill:#ffffff;fill-opacity:1;fill-rule:evenodd;stroke:none;stroke-width:1px;stroke-linecap:butt;stroke-linejoin:miter;stroke-opacity:1" />
      <g
         transform="matrix(0.7463156,0.4361823,-0.4361823,0.7463156,89.038778,-287.70462)"
         id="g3488">
        <g
           id="g3441">
          <path
             sodipodi:nodetypes="csssssscc"
             id="path4594"
             d="M 304.50438,437.17997 C 304.50438,437.17997 322.52054,426.96302 331.2901,426.82283 C 340.8338,426.67026 358.93388,430.12501 365.93295,438.60855 C 369.13728,442.4925 354.06994,439.92667 350.57581,440.03712 C 348.26407,440.1102 350.85901,446.50314 348.7901,447.53712 C 346.38644,448.7384 342.42412,443.14483 340.21867,444.67998 C 338.63337,445.78346 342.84297,450.10666 340.93295,450.39426 C 333.12149,451.57045 316.13454,455.51806 316.2901,455.7514 L 304.50438,437.17997 z"
             style="fill:#3398c3;fill-opacity:1;fill-rule:evenodd;stroke:#000000;stroke-width:2;stroke-linecap:butt;stroke-linejoin:miter;stroke-miterlimit:4;stroke-dasharray:none;stroke-opacity:1" />
          <path
             sodipodi:nodetypes="cccccccssc"
             id="path4598"
             d="M 365.93295,457.71568 C 360.41347,454.96368 354.89995,457.31328 345.57581,456.64426 C 344.30439,457.73474 343.39608,459.00678 343.07581,460.57283 L 335.93295,456.64426 C 334.66695,457.66918 332.35177,456.35021 332.36153,459.5014 C 328.69635,459.16743 328.43936,458.39322 328.07581,456.64426 C 327.36304,451.94315 329.53245,449.2867 325.93295,442.17998 C 324.4122,434.87981 291.90836,423.2466 274.50438,423.78712 C 236.62894,424.96344 250.3542,462.13186 265.21867,470.75141 C 301.54948,491.81877 361.61319,481.89985 365.93295,457.71568 z"
             style="fill:#3398c3;fill-opacity:1;fill-rule:evenodd;stroke:#000000;stroke-width:2;stroke-linecap:butt;stroke-linejoin:miter;stroke-miterlimit:4;stroke-dasharray:none;stroke-opacity:1" />
        </g>
        <path
           style="opacity:0.8;fill:#ffffff;fill-opacity:1;fill-rule:evenodd;stroke:none;stroke-width:1px;stroke-linecap:butt;stroke-linejoin:miter;stroke-opacity:1"
           d="M 256.95054,434.92116 C 280.77458,429.18557 289.64264,428.58158 312.37561,440.91065 C 302.64008,424.97323 264.34659,423.48128 256.95054,434.92116 z"
           id="path4608"
           sodipodi:nodetypes="ccc" />
        <path
           style="opacity:0.8;fill:#ffffff;fill-opacity:1;fill-rule:evenodd;stroke:none;stroke-width:1px;stroke-linecap:butt;stroke-linejoin:miter;stroke-opacity:1"
           d="M 353.07582,434.32284 C 353.07582,434.32284 330.18351,426.04353 321.64725,432.17998 C 320.17087,433.24131 324.28534,437.23476 325.93296,436.4657 C 331.33428,433.94453 352.99731,434.13728 353.07582,434.32284 z"
           id="path4610"
           sodipodi:nodetypes="cssc" />
        <path
           style="opacity:0.2;fill:#000000;fill-opacity:1;fill-rule:evenodd;stroke:none;stroke-width:1px;stroke-linecap:butt;stroke-linejoin:miter;stroke-opacity:1"
           d="M 266.81956,470.76482 C 310.87765,485.49196 336.15669,471.8658 363.21609,462.90216 C 358.90754,479.35519 302.15077,494.09497 266.81956,470.76482 z"
           id="path4616"
           sodipodi:nodetypes="ccc" />
      </g>
      <path
         sodipodi:nodetypes="ccc"
         id="path4630"
         d="M 64.826507,164.5478 C 66.754112,168.06095 67.469247,179.02469 65.289609,180.13843 C 65.783977,176.75144 64.158215,168.65633 64.826507,164.5478 z"
         style="opacity:0.7;fill:#ffffff;fill-opacity:1;fill-rule:evenodd;stroke:none;stroke-width:1px;stroke-linecap:butt;stroke-linejoin:miter;stroke-opacity:1" />
      <g
         transform="matrix(0.8800357,0,0,0.8136863,-146.1756,-24.774727)"
         id="g3981">
        <path
           sodipodi:type="arc"
           style="opacity:1;fill:#000000;fill-opacity:1;fill-rule:evenodd;stroke:none;stroke-width:3.54330707;stroke-miterlimit:4;stroke-dasharray:none;stroke-opacity:1"
           id="path3983"
           sodipodi:cx="219.96072"
           sodipodi:cy="130.34544"
           sodipodi:rx="21.970818"
           sodipodi:ry="26.516504"
           d="M 241.93154,130.34544 A 21.970818,26.516504 0 1 1 197.98991,130.34544 A 21.970818,26.516504 0 1 1 241.93154,130.34544 z"
           transform="matrix(1.0229885,0,0,1,61.6135,3.5355339)" />
        <path
           sodipodi:type="arc"
           style="opacity:1;fill:#ffffff;fill-opacity:1;fill-rule:evenodd;stroke:none;stroke-width:0.94424129;stroke-miterlimit:4;stroke-dasharray:none;stroke-opacity:1"
           id="path3985"
           sodipodi:cx="224.00133"
           sodipodi:cy="139.94189"
           sodipodi:rx="21.970818"
           sodipodi:ry="20.960665"
           d="M 245.97215,139.94189 A 21.970818,20.960665 0 1 1 202.03051,139.94189 A 21.970818,20.960665 0 1 1 245.97215,139.94189 z"
           transform="matrix(0.9875095,0,0,1.1194375,65.679887,-19.744789)" />
        <path
           sodipodi:type="arc"
           style="opacity:1;fill:url(#linearGradient4329);fill-opacity:1;fill-rule:evenodd;stroke:none;stroke-width:3.54330707;stroke-miterlimit:4;stroke-dasharray:none;stroke-opacity:1"
           id="path3987"
           sodipodi:cx="217.68787"
           sodipodi:cy="137.41652"
           sodipodi:rx="14.647212"
           sodipodi:ry="17.930208"
           d="M 232.33508,137.41652 A 14.647212,17.930208 0 1 1 203.04065,137.41652 A 14.647212,17.930208 0 1 1 232.33508,137.41652 z"
           transform="matrix(1.0172414,0,0,1.0422535,64.179526,-6.0588701)" />
        <path
           sodipodi:type="arc"
           style="opacity:1;fill:#000000;fill-opacity:1;fill-rule:evenodd;stroke:none;stroke-width:3.54330707;stroke-miterlimit:4;stroke-dasharray:none;stroke-opacity:1"
           id="path3989"
           sodipodi:cx="216.17264"
           sodipodi:cy="135.90129"
           sodipodi:rx="9.5964499"
           sodipodi:ry="12.879445"
           d="M 225.76909,135.90129 A 9.5964499,12.879445 0 1 1 206.57619,135.90129 A 9.5964499,12.879445 0 1 1 225.76909,135.90129 z"
           transform="matrix(1.0789474,0,0,1.0588235,52.381728,-6.7315028)" />
        <path
           sodipodi:type="arc"
           style="opacity:1;fill:#ffffff;fill-opacity:1;fill-rule:evenodd;stroke:none;stroke-width:1;stroke-miterlimit:4;stroke-dasharray:none;stroke-opacity:1"
           id="path3991"
           sodipodi:cx="216.96428"
           sodipodi:cy="118.07647"
           sodipodi:rx="6.25"
           sodipodi:ry="10"
           d="M 223.21428,118.07647 A 6.25,10 0 1 1 210.71428,118.07647 A 6.25,10 0 1 1 223.21428,118.07647 z"
           transform="matrix(0.8635422,0.6148578,-0.6148578,0.8635422,180.17025,-105.68258)" />
        <path
           sodipodi:type="arc"
           style="opacity:1;fill:#ffffff;fill-opacity:1;fill-rule:evenodd;stroke:none;stroke-width:1;stroke-miterlimit:4;stroke-dasharray:none;stroke-opacity:1"
           id="path3993"
           sodipodi:cx="204.82143"
           sodipodi:cy="141.64789"
           sodipodi:rx="4.8214288"
           sodipodi:ry="3.2142856"
           d="M 209.64286,141.64789 A 4.8214288,3.2142856 0 1 1 200,141.64789 A 4.8214288,3.2142856 0 1 1 209.64286,141.64789 z"
           transform="matrix(1.1111111,0,0,1.1111111,53.492064,-5.7386551)" />
        <path
           style="fill:#000000;fill-opacity:1;fill-rule:evenodd;stroke:none;stroke-width:1px;stroke-linecap:butt;stroke-linejoin:miter;stroke-opacity:1"
           d="M 273.75,112.8979 C 275.04002,121.1401 266.543,116.4204 267.01165,113.28136 C 267.27178,117.76485 267.45999,118.2252 268.22084,118.81216 C 270.60456,120.65107 269.25183,119.16754 267.8081,120.18769 C 266.31695,121.24136 267.04875,121.71312 263.36839,119.45873 C 264.08756,121.1198 265.16836,123.77254 265.91572,124.17611 C 267.79072,121.98861 274.10714,113.25504 273.75,112.8979 z"
           id="path3995"
           sodipodi:nodetypes="ccszccc" />
      </g>
      <path
         d="M 2.3379115,52.168753 C 4.1311984,51.782832 5.9412358,51.461475 7.7589222,51.208953 C 10.437066,50.872203 13.053287,50.283752 15.763465,50.324519 C 16.177704,50.348161 16.597548,50.323539 17.006183,50.395446 C 17.489457,50.480486 17.953312,50.652869 18.423686,50.792631 C 20.180287,51.31457 21.850867,51.967536 23.495563,52.771904 C 25.005386,53.500801 26.553352,54.155595 28.106789,54.786404 C 29.495149,55.327359 30.925467,55.589752 32.402402,55.732948 C 34.640939,55.890702 36.886895,55.890003 39.129824,55.892182 C 40.753067,55.847717 42.386845,55.990798 44.005682,55.81711 C 44.984232,55.712119 45.430194,55.573057 46.408796,55.343446 C 49.806297,54.393388 53.086412,53.087293 56.373744,51.820059 C 58.098018,51.127775 59.838316,50.512556 61.486237,49.646602 C 61.97872,49.387811 63.422377,48.549581 62.94062,48.827832 C 57.26765,52.104396 56.731328,52.45775 59.306741,50.853769 C 60.901705,49.803334 62.279113,48.48228 63.542889,47.061018 C 64.035583,46.486685 63.808945,46.773004 64.227281,46.205625 L 71.025163,43.225145 C 70.630104,43.897451 70.854307,43.567429 70.345715,44.210529 C 68.979589,45.643376 67.662479,47.132959 66.004967,48.252577 C 61.186181,51.32697 56.269366,54.246415 50.866167,56.141853 C 47.518863,57.44973 44.161575,58.773193 40.683587,59.696016 C 38.234844,60.203794 35.767109,60.193406 33.272781,60.144724 C 30.995558,60.13242 28.71402,60.146993 26.442103,59.970906 C 24.898964,59.804232 23.397974,59.488006 21.960323,58.884147 C 20.442667,58.205924 18.912163,57.54747 17.450419,56.753583 C 15.105189,55.583006 12.589731,54.583077 9.9324279,54.561008 C 7.2353711,54.603321 4.619793,55.201043 1.9544139,55.559145 C 0.079514734,55.858989 -1.7843126,56.227388 -3.6332267,56.659549 L 2.3379115,52.168753 z"
         id="path4333"
         style="opacity:1;fill:#000000;fill-opacity:1;fill-rule:evenodd;stroke:none;stroke-width:2.20000004999999987;stroke-miterlimit:4;stroke-dasharray:none;stroke-opacity:1" />
      <path
         d="M 30.654849,27.859523 C 34.500973,25.265031 36.582355,23.900848 40.494483,23.412434 C 40.885811,23.363578 41.277422,23.276464 41.671468,23.292328 C 42.199539,23.313587 42.717222,23.446088 43.240099,23.522968 C 48.054148,24.557263 52.50162,26.765356 57.169834,28.279532 C 58.415653,28.683624 59.681213,29.024108 60.936903,29.396396 C 68.83129,31.665713 76.902712,33.230167 84.991534,34.61858 C 90.739162,35.386701 96.553959,36.262519 102.37279,36.090026 C 103.47795,36.057265 104.57989,35.953762 105.68344,35.88563 C 112.05085,35.310273 118.11464,33.137912 124.06689,30.926126 C 125.92719,30.069128 127.8475,29.331081 129.6617,28.374658 C 130.06578,28.161634 131.2455,27.463599 130.84749,27.687758 C 129.08642,28.679594 127.3308,29.68107 125.57246,30.677726 L 132.3438,28.040411 C 127.86767,30.666864 123.60661,33.386239 118.70693,35.113507 C 112.75053,37.230718 106.69447,39.309334 100.3485,39.810023 C 97.341142,39.979991 96.730291,40.091301 93.749741,39.962128 C 89.044342,39.758203 84.383203,38.941882 79.726326,38.30322 C 71.636371,36.793384 63.52185,35.355574 55.613487,33.036126 C 50.939149,31.672525 52.693982,32.238335 48.166731,30.708553 C 44.64613,29.518924 41.157974,28.095316 37.437804,27.661589 C 35.981785,27.620408 35.025704,27.666075 33.617144,27.99135 C 30.897096,28.619483 27.105869,31.085521 37.62953,25.168725 L 30.654849,27.859523 z"
         id="path4335"
         style="opacity:1;fill:#000000;fill-opacity:1;fill-rule:evenodd;stroke:none;stroke-width:2.20000005;stroke-miterlimit:4;stroke-dasharray:none;stroke-opacity:1" />
      <path
         sodipodi:nodetypes="ccc"
         id="path4345"
         d="M 99.752563,109.65416 C 111.876,114.15392 141.65313,92.960766 140.28493,90.840058 C 124.65408,94.623413 113.08116,95.661432 99.752563,109.65416 z"
         style="fill:#3398c3;fill-opacity:1;fill-rule:evenodd;stroke:none;stroke-width:1px;stroke-linecap:butt;stroke-linejoin:miter;stroke-opacity:1" />
      <path
         sodipodi:nodetypes="ccc"
         id="path4347"
         d="M 105.53289,107.75549 C 107.1294,107.6581 124.55216,96.275549 125.57782,96.272699 C 118.87029,97.896215 111.25247,101.75092 105.53289,107.75549 z"
         style="fill:#ffffff;fill-opacity:1;fill-rule:evenodd;stroke:none;stroke-width:1px;stroke-linecap:butt;stroke-linejoin:miter;stroke-opacity:1;opacity:0.8" />
    </g>
  </g>
</svg>
