<?xml version="1.0" encoding="UTF-8" standalone="no"?>
<!-- Created with Inkscape (http://www.inkscape.org/) -->

<svg
   xmlns:dc="http://purl.org/dc/elements/1.1/"
   xmlns:cc="http://creativecommons.org/ns#"
   xmlns:rdf="http://www.w3.org/1999/02/22-rdf-syntax-ns#"
   xmlns:svg="http://www.w3.org/2000/svg"
   xmlns="http://www.w3.org/2000/svg"
   xmlns:sodipodi="http://sodipodi.sourceforge.net/DTD/sodipodi-0.dtd"
   xmlns:inkscape="http://www.inkscape.org/namespaces/inkscape"
   width="32"
   height="32"
   id="svg4426"
   sodipodi:version="0.32"
   inkscape:version="0.91 r13725"
   version="1.0"
   sodipodi:docname="gambas-ide-alt.svg"
   inkscape:output_extension="org.inkscape.output.svg.inkscape"
   inkscape:export-filename="/home/adrien/Images/Gambas/gambas-ide-alt.png"
   inkscape:export-xdpi="720"
   inkscape:export-ydpi="720">
  <defs
     id="defs4428">
    <linearGradient
       id="linearGradient3602">
      <stop
         style="stop-color:#ff0d00;stop-opacity:1;"
         offset="0"
         id="stop3604" />
      <stop
         id="stop3610"
         offset="0.5"
         style="stop-color:#ff0c00;stop-opacity:1;" />
      <stop
         style="stop-color:#f1d3d3;stop-opacity:1;"
         offset="1"
         id="stop3606" />
    </linearGradient>
  </defs>
  <sodipodi:namedview
     id="base"
     pagecolor="#ffffff"
     bordercolor="#666666"
     borderopacity="1.0"
     gridtolerance="10000"
     guidetolerance="10"
     objecttolerance="10"
     inkscape:pageopacity="0.0"
     inkscape:pageshadow="2"
     inkscape:zoom="9.7006212"
     inkscape:cx="12.013456"
     inkscape:cy="13.582024"
     inkscape:document-units="px"
     inkscape:current-layer="layer1"
     showgrid="true"
     inkscape:window-width="1366"
     inkscape:window-height="730"
     inkscape:window-x="0"
     inkscape:window-y="38"
     inkscape:window-maximized="1"
     inkscape:snap-page="true"
     fit-margin-top="0"
     fit-margin-left="0"
     fit-margin-right="0"
     fit-margin-bottom="0"
     showguides="false">
    <inkscape:grid
       type="xygrid"
       id="grid4791" />
  </sodipodi:namedview>
  <metadata
     id="metadata4431">
    <rdf:RDF>
      <cc:Work
         rdf:about="">
        <dc:format>image/svg+xml</dc:format>
        <dc:type
           rdf:resource="http://purl.org/dc/dcmitype/StillImage" />
        <dc:title></dc:title>
        <dc:date>15/09/2008</dc:date>
        <dc:creator>
          <cc:Agent>
            <dc:title>Fabien Bodard</dc:title>
          </cc:Agent>
        </dc:creator>
        <dc:rights>
          <cc:Agent>
            <dc:title>Common Creative</dc:title>
          </cc:Agent>
        </dc:rights>
        <dc:publisher>
          <cc:Agent>
            <dc:title>Fabien Bodard</dc:title>
          </cc:Agent>
        </dc:publisher>
        <dc:identifier>gbFBodard150908</dc:identifier>
        <dc:relation>http://gambas.sf.net</dc:relation>
        <dc:subject>
          <rdf:Bag>
            <rdf:li>gambas3 logo basic shrimp</rdf:li>
          </rdf:Bag>
        </dc:subject>
        <dc:description>A pretty shrimp, a malicious new gambas logo... we got the power !</dc:description>
        <dc:contributor>
          <cc:Agent>
            <dc:title>Fabien Bodard</dc:title>
          </cc:Agent>
        </dc:contributor>
        <cc:license
           rdf:resource="http://creativecommons.org/licenses/by-sa/3.0/" />
      </cc:Work>
      <cc:License
         rdf:about="http://creativecommons.org/licenses/by-sa/3.0/">
        <cc:permits
           rdf:resource="http://creativecommons.org/ns#Reproduction" />
        <cc:permits
           rdf:resource="http://creativecommons.org/ns#Distribution" />
        <cc:requires
           rdf:resource="http://creativecommons.org/ns#Notice" />
        <cc:requires
           rdf:resource="http://creativecommons.org/ns#Attribution" />
        <cc:permits
           rdf:resource="http://creativecommons.org/ns#DerivativeWorks" />
        <cc:requires
           rdf:resource="http://creativecommons.org/ns#ShareAlike" />
      </cc:License>
    </rdf:RDF>
  </metadata>
  <g
     inkscape:label="Layer 1"
     inkscape:groupmode="layer"
     id="layer1"
     transform="translate(-52.671493,-121.70233)">
    <ellipse
       id="path3434"
       cx="68.671494"
       cy="137.70233"
       style="opacity:1;fill:#e67e22;fill-opacity:1;stroke:none;stroke-width:3.96274471;stroke-miterlimit:4;stroke-dasharray:none;stroke-opacity:1"
       rx="16"
       ry="16.000002" />
    <ellipse
       id="path3434-0"
       cx="68.671494"
       cy="137.70233"
       style="opacity:1;fill:#ffffff;fill-opacity:1;stroke:none;stroke-width:3.96274471;stroke-miterlimit:4;stroke-dasharray:none;stroke-opacity:1"
       rx="12"
       ry="12.000002" />
    <g
       id="g4890"
       transform="matrix(2,0,0,2,-72.671493,-133.70241)">
      <path
         sodipodi:nodetypes="cccccccccscscscscsc"
         inkscape:connector-curvature="0"
         id="path4700"
         d="m 68.671493,129.70238 c -2.209139,0 -3.999999,1.79086 -4,4 0.0013,0.29851 0.03603,0.59593 0.103516,0.88672 -0.694937,0.88526 -1.101517,1.97265 -1.103516,3.11327 -2e-6,2.76142 2.238575,5 5,5 0.322777,-0.002 0.658263,-0.012 0.974609,-0.0762 5.172276,-0.74629 8.025391,-7.27037 8.025391,-12.92383 -1.455436,1.63668 -3.187804,3.35025 -5.007813,3.8457 -0.08283,-2.14563 -1.844956,-3.8431 -3.992187,-3.8457 z m 0,2 c 1.104579,0 2.000014,0.89543 2,2 1.4e-5,1.10457 -0.895421,2 -2,2 -1.104579,0 -2.000014,-0.89543 -2,-2 -1.4e-5,-1.10457 0.895421,-2 2,-2 z m -3,6 c 0,0 1,1.02734 3,1.02734 2,0 5,-1.02734 5,-1.02734 0,0 -2,3 -5,3 -3,0 -3,-3 -3,-3 z"
         style="fill:#2980b9;fill-opacity:1;fill-rule:evenodd;stroke:none;stroke-width:1px;stroke-linecap:butt;stroke-linejoin:miter;stroke-opacity:1" />
      <path
         sodipodi:nodetypes="scscssssss"
         inkscape:connector-curvature="0"
         id="path4706"
         d="m 69.171493,131.70238 c -0.828441,0 -1.50002,0.67158 -1.5,1.5 -2e-5,0.82842 0.671559,1.5 1.5,1.5 0.828441,0 1.50002,-0.67158 1.5,-1.5 2e-5,-0.82842 -0.671559,-1.5 -1.5,-1.5 z m 0.5,0.5 c 0.276142,0 0.499999,0.22386 0.5,0.5 -10e-7,0.27614 -0.223858,0.5 -0.5,0.5 -0.276142,0 -0.499999,-0.22386 -0.5,-0.5 10e-7,-0.27614 0.223858,-0.5 0.5,-0.5 z"
         style="opacity:1;fill:#2980b9;fill-opacity:1;fill-rule:nonzero;stroke:none;stroke-width:32;stroke-linecap:round;stroke-linejoin:round;stroke-miterlimit:4;stroke-dasharray:none;stroke-opacity:1" />
    </g>
  </g>
</svg>
