<?xml version="1.0" encoding="UTF-8" standalone="no"?>
<!-- Created with Inkscape (http://www.inkscape.org/) -->

<svg
   xmlns:dc="http://purl.org/dc/elements/1.1/"
   xmlns:cc="http://creativecommons.org/ns#"
   xmlns:rdf="http://www.w3.org/1999/02/22-rdf-syntax-ns#"
   xmlns:svg="http://www.w3.org/2000/svg"
   xmlns="http://www.w3.org/2000/svg"
   xmlns:xlink="http://www.w3.org/1999/xlink"
   version="1.0"
   width="16"
   height="16"
   id="svg3327">
  <metadata
     id="metadata34">
    <rdf:RDF>
      <cc:Work
         rdf:about="">
        <dc:format>image/svg+xml</dc:format>
        <dc:type
           rdf:resource="http://purl.org/dc/dcmitype/StillImage" />
        <dc:title></dc:title>
      </cc:Work>
    </rdf:RDF>
  </metadata>
  <defs
     id="defs3329">
    <linearGradient
       x1="86.133003"
       y1="105.1"
       x2="84.639"
       y2="20.895"
       id="linearGradient3260"
       gradientUnits="userSpaceOnUse"
       gradientTransform="matrix(0.096142,0,0,0.096142,1.8469,1.943)">
      <stop
         id="stop5130"
         style="stop-color:#e5e5e5;stop-opacity:1"
         offset="0" />
      <stop
         id="stop5132"
         style="stop-color:#ababab;stop-opacity:1"
         offset="1" />
    </linearGradient>
    <linearGradient
       x1="21"
       x2="21"
       y2="16.004999"
       id="linearGradient3264"
       gradientUnits="userSpaceOnUse"
       gradientTransform="translate(-17.058,0)">
      <stop
         id="stop3399"
         style="stop-color:#aaaaaa;stop-opacity:1"
         offset="0" />
      <stop
         id="stop3401"
         style="stop-color:#8c8c8c;stop-opacity:1"
         offset="1" />
    </linearGradient>
    <linearGradient
       x1="25"
       x2="25"
       y2="16"
       id="linearGradient3262"
       gradientUnits="userSpaceOnUse"
       gradientTransform="translate(-17.058,0)">
      <stop
         id="stop3311"
         style="stop-color:#f6f6f6;stop-opacity:1"
         offset="0" />
      <stop
         id="stop3313"
         style="stop-color:#cccccc;stop-opacity:1"
         offset="1" />
    </linearGradient>
    <linearGradient
       x1="23.931"
       y1="14.702"
       x2="23.931"
       y2="43.298"
       id="linearGradient2547"
       gradientUnits="userSpaceOnUse"
       gradientTransform="matrix(0.4056,0,0,0.41964,2.2936,-2.1694)">
      <stop
         id="stop3663"
         style="stop-color:#cc7032;stop-opacity:1"
         offset="0" />
      <stop
         id="stop3665"
         style="stop-color:#bb2d13;stop-opacity:1"
         offset="0.72724998" />
      <stop
         id="stop3667"
         style="stop-color:#a87300;stop-opacity:0"
         offset="1" />
    </linearGradient>
    <linearGradient
       x1="-5.4561"
       y1="21.565001"
       x2="51.34"
       y2="21.565001"
       id="linearGradient2545"
       gradientUnits="userSpaceOnUse"
       gradientTransform="matrix(0,0.21128,-0.20421,0,16.404,5.1528)">
      <stop
         id="stop3671"
         style="stop-color:#ecb56c;stop-opacity:1"
         offset="0" />
      <stop
         id="stop3673"
         style="stop-color:#e86225;stop-opacity:1"
         offset="0.87936002" />
      <stop
         id="stop3675"
         style="stop-color:#b07c0b;stop-opacity:0"
         offset="1" />
    </linearGradient>
    <linearGradient
       x1="22.76"
       y1="29.136999"
       x2="22.76"
       y2="42.242001"
       id="linearGradient3325"
       gradientUnits="userSpaceOnUse"
       gradientTransform="matrix(0.4056,0,0,0.41964,2.2936,-2.1694)">
      <stop
         id="stop4224"
         style="stop-color:#ffffff;stop-opacity:1"
         offset="0" />
      <stop
         id="stop4226"
         style="stop-color:#ffffff;stop-opacity:0"
         offset="1" />
    </linearGradient>
    <linearGradient
       x1="11.223"
       y1="7.0009999"
       x2="11.223"
       y2="14.492"
       id="linearGradient3378"
       gradientUnits="userSpaceOnUse"
       gradientTransform="translate(0.03442063,0.03442064)">
      <stop
         id="stop3374"
         style="stop-color:#ffffff;stop-opacity:1"
         offset="0" />
      <stop
         id="stop3376"
         style="stop-color:#ffffff;stop-opacity:0"
         offset="1" />
    </linearGradient>
    <linearGradient
       x1="28.315001"
       y1="20.709999"
       x2="0.81572002"
       y2="20.709999"
       id="linearGradient2581"
       gradientUnits="userSpaceOnUse"
       gradientTransform="matrix(0,-0.21372,-0.20965,0,16.377,15.892)">
      <stop
         id="stop2266"
         style="stop-color:#d7e866;stop-opacity:1"
         offset="0" />
      <stop
         id="stop2268"
         style="stop-color:#8cab2a;stop-opacity:1"
         offset="1" />
    </linearGradient>
    <linearGradient
       x1="28.315001"
       y1="20.709999"
       x2="0.81572002"
       y2="20.709999"
       id="linearGradient3038"
       xlink:href="#linearGradient2581"
       gradientUnits="userSpaceOnUse"
       gradientTransform="matrix(0,-0.21372,-0.20965,0,16.411421,15.92642)" />
  </defs>
  <g
     id="layer1">
    <g
       id="g3361">
      <g
         id="g2479">
        <path
           d="M 6.9375,0.5 C 6.6891,0.5 6.5,0.68908 6.5,0.9375 v 1.25 C 5.9461,2.3297 5.4488,2.5594 4.9688,2.8438 L 4.0625,1.9375 c -0.17566,-0.17566 -0.44934,-0.17566 -0.625,0 l -1.5,1.5 c -0.17566,0.17566 -0.17566,0.44934 0,0.625 L 2.8438,4.9688 C 2.5594,5.4488 2.3297,5.9461 2.1875,6.5 h -1.25 C 0.68908,6.5 0.5,6.6891 0.5,6.9375 v 2.125 c 1e-8,0.24842 0.18908,0.4375 0.4375,0.4375 h 1.25 c 0.1422,0.5539 0.37188,1.0512 0.65625,1.5312 l -0.9063,0.907 c -0.17566,0.17566 -0.17566,0.44934 0,0.625 l 1.5,1.5 c 0.17566,0.17566 0.44934,0.17566 0.625,0 l 0.9063,-0.907 c 0.48,0.285 0.9773,0.514 1.5312,0.656 v 1.25 c 1e-7,0.24842 0.18908,0.4375 0.4375,0.4375 h 2.125 c 0.2484,0 0.4375,-0.189 0.4375,-0.438 v -1.25 c 0.5539,-0.1422 1.0512,-0.37188 1.5312,-0.65625 l 0.90625,0.90625 c 0.17566,0.17566 0.44934,0.17566 0.625,0 l 1.5,-1.5 c 0.17566,-0.17566 0.17566,-0.44934 0,-0.625 l -0.906,-0.906 c 0.285,-0.48 0.514,-0.977 0.656,-1.531 h 1.25 c 0.249,0 0.438,-0.1891 0.438,-0.4375 v -2.125 c 0,-0.2484 -0.189,-0.4375 -0.438,-0.4375 h -1.25 c -0.142,-0.5539 -0.371,-1.0512 -0.656,-1.5312 l 0.906,-0.9063 c 0.17566,-0.17566 0.17566,-0.44934 0,-0.625 l -1.5,-1.5 c -0.17566,-0.17566 -0.44934,-0.17566 -0.625,0 l -0.906,0.9063 c -0.48,-0.2844 -0.977,-0.5141 -1.531,-0.6563 v -1.25 C 9.5004,0.68878 9.3113,0.4997 9.0629,0.4997 H 6.9379 z M 8,6 c 1.104,0 2,0.896 2,2 0,1.104 -0.896,2 -2,2 C 6.896,10 6,9.104 6,8 6,6.896 6.896,6 8,6 z"
           id="path2426"
           style="fill:url(#linearGradient3262);stroke:url(#linearGradient3264);stroke-linejoin:round;display:block" />
        <path
           d="M 8,3.4651 C 5.4994,3.4651 3.4651,5.4994 3.4651,8 c 0,2.501 2.0343,4.535 4.5349,4.535 2.501,0 4.535,-2.034 4.535,-4.535 C 12.535,5.4994 10.501,3.4651 8,3.4651 z m 0,2.093 c 1.3479,0 2.4419,1.094 2.4419,2.4419 0,1.3479 -1.094,2.4419 -2.4419,2.4419 -1.3479,0 -2.4419,-1.0941 -2.4419,-2.442 C 5.5581,6.652 6.6521,5.558 8,5.558 z"
           id="path3315"
           style="opacity:0.05" />
        <path
           d="M 8,4 C 5.7944,4 4,5.7944 4,8 c 0,2.206 1.7944,4 4,4 2.206,0 4,-1.794 4,-4 C 12,5.7944 10.206,4 8,4 z"
           id="path28"
           style="fill:none;stroke:url(#linearGradient3260)" />
      </g>
    </g>
  </g>
  <path
     d="m 15.535421,10.53442 -4.501,5.001 -4.5000004,-5.001 h 2 V 6.5344206 H 13.534421 V 10.53442 h 2.001 z"
     id="path3288"
     style="fill:url(#linearGradient3038);stroke:#699536;stroke-width:0.99829;stroke-linecap:round;stroke-linejoin:round" />
  <path
     d="m 13.357421,11.53442 -2.323,2.493 -2.2941004,-2.493 h 0.7941 V 7.5344206 H 12.534421 V 11.53442 h 0.823 z"
     id="path3362"
     style="opacity:0.4;fill:none;stroke:url(#linearGradient3378);stroke-width:0.99800003;stroke-linecap:round" />
</svg>
