<?xml version="1.0" encoding="UTF-8" standalone="no"?>
<!-- Created with Inkscape (http://www.inkscape.org/) -->

<svg
   xmlns:dc="http://purl.org/dc/elements/1.1/"
   xmlns:cc="http://creativecommons.org/ns#"
   xmlns:rdf="http://www.w3.org/1999/02/22-rdf-syntax-ns#"
   xmlns:svg="http://www.w3.org/2000/svg"
   xmlns="http://www.w3.org/2000/svg"
   xmlns:sodipodi="http://sodipodi.sourceforge.net/DTD/sodipodi-0.dtd"
   xmlns:inkscape="http://www.inkscape.org/namespaces/inkscape"
   width="16"
   height="16"
   viewBox="0 0 16 16"
   id="svg4142"
   version="1.1"
   inkscape:version="0.91 r13725"
   sodipodi:docname="gambas-alt.svg"
   inkscape:export-filename="/home/adrien/Images/Gambas/gambas-alt.png"
   inkscape:export-xdpi="90"
   inkscape:export-ydpi="90">
  <defs
     id="defs4144" />
  <sodipodi:namedview
     id="base"
     pagecolor="#ffffff"
     bordercolor="#666666"
     borderopacity="1.0"
     inkscape:pageopacity="0.0"
     inkscape:pageshadow="2"
     inkscape:zoom="22.627417"
     inkscape:cx="8.6429667"
     inkscape:cy="4.1193433"
     inkscape:document-units="px"
     inkscape:current-layer="g4718"
     showgrid="true"
     units="px"
     inkscape:snap-bbox="true"
     inkscape:bbox-nodes="true"
     inkscape:snap-bbox-edge-midpoints="true"
     inkscape:snap-bbox-midpoints="true"
     inkscape:window-width="1920"
     inkscape:window-height="1010"
     inkscape:window-x="-4"
     inkscape:window-y="0"
     inkscape:window-maximized="1"
     inkscape:bbox-paths="true">
    <inkscape:grid
       type="xygrid"
       id="grid4690" />
  </sodipodi:namedview>
  <metadata
     id="metadata4147">
    <rdf:RDF>
      <cc:Work
         rdf:about="">
        <dc:format>image/svg+xml</dc:format>
        <dc:type
           rdf:resource="http://purl.org/dc/dcmitype/StillImage" />
        <dc:title />
      </cc:Work>
    </rdf:RDF>
  </metadata>
  <g
     inkscape:label="Calque 1"
     inkscape:groupmode="layer"
     id="layer1"
     transform="translate(0,-1036.3622)">
    <g
       id="g4718"
       transform="translate(0,-0.9999912)">
      <g
         id="g4147">
        <path
           sodipodi:nodetypes="cccccccccscscscscsc"
           inkscape:connector-curvature="0"
           id="path4700"
           transform="translate(0,1037.3622)"
           d="M 6,2 C 3.7908615,2 2.0000008,3.7908608 2,6 2.0013101,6.2985096 2.0360314,6.5959344 2.1035156,6.8867188 1.4085789,7.7719788 1.0019993,8.8593704 1,9.9999912 c -2.1e-6,2.7614228 2.2385748,4.9999998 5,4.9999998 0.3227769,-0.0021 0.658263,-0.01202 0.9746094,-0.07616 C 12.146885,14.177544 15,7.6534621 15,2 13.544564,3.6366849 11.812196,5.3502511 9.9921875,5.8457031 9.9093605,3.7000678 8.1472311,2.0025957 6,2 Z M 6,4 C 7.1045794,4 8.000014,4.8954346 8,6 8.000014,7.1045654 7.1045794,8 6,8 4.8954206,8 3.999986,7.1045654 4,6 3.999986,4.8954346 4.8954206,4 6,4 Z m -3,6 c 0,0 1,1.027344 3,1.027344 C 8,11.027344 11,10 11,10 11,10 9,13 6,13 3,13 3,10 3,10 Z"
           style="fill:#2980b9;fill-opacity:1;fill-rule:evenodd;stroke:none;stroke-width:1px;stroke-linecap:butt;stroke-linejoin:miter;stroke-opacity:1" />
        <path
           sodipodi:nodetypes="scscssssss"
           inkscape:connector-curvature="0"
           id="path4706"
           transform="translate(0,1037.3622)"
           d="M 6.5,4 C 5.6715588,4 4.9999801,4.6715787 5,5.5 4.9999801,6.3284213 5.6715588,7 6.5,7 7.3284412,7 8.0000199,6.3284213 8,5.5 8.0000199,4.6715787 7.3284412,4 6.5,4 Z M 7,4.5 C 7.2761416,4.5 7.4999989,4.7238573 7.5,5 7.4999989,5.2761427 7.2761416,5.5 7,5.5 6.7238584,5.5 6.5000011,5.2761427 6.5,5 6.5000011,4.7238573 6.7238584,4.5 7,4.5 Z"
           style="opacity:1;fill:#2980b9;fill-opacity:1;fill-rule:nonzero;stroke:none;stroke-width:32;stroke-linecap:round;stroke-linejoin:round;stroke-miterlimit:4;stroke-dasharray:none;stroke-opacity:1" />
      </g>
    </g>
  </g>
</svg>
